<?xml version="1.0" encoding="utf-8"?>
<!-- Generator: Adobe Illustrator 18.0.0, SVG Export Plug-In . SVG Version: 6.00 Build 0)  -->
<!DOCTYPE svg PUBLIC "-//W3C//DTD SVG 1.1//EN" "http://www.w3.org/Graphics/SVG/1.1/DTD/svg11.dtd">
<svg version="1.1" id="Calque_1" xmlns="http://www.w3.org/2000/svg" xmlns:xlink="http://www.w3.org/1999/xlink" x="0px" y="0px"
	 viewBox="0 0 50 50" enable-background="new 0 0 50 50" xml:space="preserve">
<g>
	<g>
		<g>
			<path fill="#E46A25" d="M25.1,3.7c-3.9-0.1-7.3,1.7-6.7,6c0.6,4.3,5.2,7.4,9.2,7.5c4,0,7.2-4,6.6-7.9C33.6,5.5,28.4,3.9,25.1,3.7
				c-1.9-0.1-1.9,2.9,0,3c2,0.1,4.1,0.8,5.6,2.2c2.1,2.1-0.8,5.1-3,5.3c-2.3,0.2-4.5-1.5-5.6-3.4c-1.8-3,0.2-4.2,3-4.1
				C27,6.7,27,3.7,25.1,3.7L25.1,3.7z"/>
		</g>
	</g>
	<g>
		<g>
			<path fill="#E46A25" d="M25.2,15.9c-0.7,4.2-0.8,8.6-1.3,12.9c-0.6,5.3-1.3,10.6-1,16c0.1,1.9,3.1,1.9,3,0
				c-0.3-4.8,0.4-9.5,0.9-14.3c0.5-4.5,0.5-9.3,1.3-13.8C28.4,14.8,25.5,14,25.2,15.9L25.2,15.9z"/>
		</g>
	</g>
	<g>
		<g>
			<path fill="#E46A25" d="M23.2,33.1c-2.5,2.6-5.2,5.1-7.4,8c-1.2,1.5,1.4,3,2.6,1.5c2-2.7,4.6-4.9,6.9-7.4
				C26.6,33.8,24.5,31.7,23.2,33.1L23.2,33.1z"/>
		</g>
	</g>
	<g>
		<g>
			<path fill="#E46A25" d="M23.9,34.5c3,3,4.8,6.8,7,10.3c1,1.6,3.6,0.1,2.6-1.5c-2.4-3.8-4.3-7.7-7.5-10.9
				C24.7,31,22.6,33.1,23.9,34.5L23.9,34.5z"/>
		</g>
	</g>
	<g>
		<g>
			<path fill="#E46A25" d="M18.7,22.2c3.8,1.7,7.4,3.6,11.2,5.2c1.8,0.7,2.6-2.2,0.8-2.9c-3.6-1.5-7-3.3-10.5-4.8
				C18.5,18.8,17,21.4,18.7,22.2L18.7,22.2z"/>
		</g>
	</g>
</g>
</svg>
