<?xml version="1.0" encoding="utf-8"?>
<!-- Generator: Adobe Illustrator 18.0.0, SVG Export Plug-In . SVG Version: 6.00 Build 0)  -->
<!DOCTYPE svg PUBLIC "-//W3C//DTD SVG 1.1//EN" "http://www.w3.org/Graphics/SVG/1.1/DTD/svg11.dtd">
<svg version="1.1" id="Calque_2" xmlns="http://www.w3.org/2000/svg" xmlns:xlink="http://www.w3.org/1999/xlink" x="0px" y="0px"
	 viewBox="0 0 50 60" enable-background="new 0 0 50 60" xml:space="preserve">
<g>
	<g>
		<path fill="#E56D26" d="M-216,16.7c1.9,4.3,0.5,9.9-3.1,13c-4.7,4-11,2.9-14.1-1.9c-2.3-3.6-0.7-8.2,1.3-11.5c1.2-2,3-3.5,5.1-4.4
			c2.8-1.2,9.5-0.9,10.7,2.8c0.1,0.2,0.9,0,0.8-0.2c-1.5-5-9.9-4-13.4-2c-4.8,2.7-7.7,9.8-5.7,14.9c2.1,5.1,7.4,5.9,12.1,4.5
			c6.2-1.9,9.6-9.3,7-15.2C-215.4,16.2-216.1,16.5-216,16.7L-216,16.7z"/>
		<path fill="#E56D26" d="M-205.7,57.5c0.1,0.5,0,1.7,0.8,1.7c0.9,0,1.7-0.6,2.4-1.2c2.4-2.1,2.8-5.7,2.1-8.7c0-0.2-0.4-0.1-0.5,0
			c-2.2,1-4.2,2.9-5.3,5.1c-0.1,0.2,0.7,0.1,0.8-0.1c0.9-2,2.8-3.8,4.8-4.7c-0.2,0-0.4,0-0.5,0c0.4,1.9,0.3,3.8-0.2,5.7
			c-0.3,0.9-0.8,1.7-1.4,2.4c-0.2,0.3-1.7,1.8-1.9,0.7c-0.1-0.4-0.1-0.7-0.2-1.1C-205,57-205.8,57.2-205.7,57.5L-205.7,57.5z"/>
		<path fill="#E56D26" d="M-233.9,41.2c1.1-2.4,3-4.6,4.5-6.8c1.1-1.6,3.1-4,3-6.1c0-0.2-0.8-0.1-0.8,0.2c0.1,2.4-2.3,5.1-3.6,6.9
			c-1.3,1.9-2.9,3.8-3.9,5.9C-234.8,41.6-234,41.5-233.9,41.2L-233.9,41.2z"/>
		<path fill="#E56D26" d="M-249.4,50.6c-0.1,2.2-0.5,6,1.3,7.6c1.4,1.3,5.9,0.7,7.6,0.3c0.1,0,0.4-0.1,0.4-0.3
			c-0.6-1.8-1.6-3.2-2.8-4.6c-0.7-0.8-1.4-1.5-2.1-2.3c-0.6-0.7-2.3-2-1.2-2.7c2.8-1.7,6.1-2.9,9.1-4c0.5-0.2,0-0.4-0.3-0.3
			c-3.3,1.2-7.4,2.4-10.2,4.7c-0.1,0.1-0.1,0.1-0.1,0.2c1.2,1.7,2.6,3.2,4,4.7c0.8,1,1.6,2,2.2,3.1c1,1.9-2.4,1.4-3.3,1.3
			c-2.5-0.1-3.3-1-3.7-3.4c-0.2-1.5-0.2-3-0.1-4.5C-248.6,50.2-249.4,50.4-249.4,50.6L-249.4,50.6z"/>
		<path fill="#E56D26" d="M-235.2,42.5c-0.2-0.2-0.3-0.4-0.6-0.4c-0.2,0-0.6,0-0.6,0.2c-0.1,0.7,0.4,1.3,0.9,1.8
			c0.1,0.1,0.7,0,0.8-0.2c0-0.6-0.2-1.1-0.6-1.4c-0.2-0.1-0.6,0-0.7,0.2c-0.3,0.3-0.4,0.7,0,0.9c0.4,0.2,1,0,1.3-0.3
			c0.4-0.4,0.1-1.2-0.4-1.4c-0.6-0.3-1.4,0-1.8,0.5c-0.7,0.9,0.8,2.4,1.7,2.4c1.6,0.1,1.3-1.7,1.3-2.7c0-0.2-0.8-0.1-0.8,0.2
			c0,0.6,0.1,1.2-0.1,1.8c-0.1,0.2-0.2,0.2,0,0.2c-0.2,0-0.3-0.1-0.4-0.2c-0.3-0.2-0.6-0.5-0.8-0.8c-0.2-0.3-0.3-0.6-0.2-0.9
			c0.1-0.7,0.7-0.2,0.8,0.2c0,0.1,0,0.3,0,0.4c0,0,0,0.1-0.1,0.1c0.1-0.1,0.2,0,0.1-0.1c-0.3-0.1,0-0.5,0.1-0.6
			c-0.2,0.1-0.5,0.1-0.7,0.2c0.4,0.3,0.6,0.7,0.6,1.2c0.3-0.1,0.5-0.1,0.8-0.2c-0.4-0.4-1-1-0.8-1.6c-0.2,0.1-0.4,0.2-0.6,0.2
			c0.2,0,0.3,0.2,0.4,0.3C-235.8,42.9-235.1,42.7-235.2,42.5L-235.2,42.5z"/>
		<path fill="#E56D26" d="M-213.5,42.8c-1.4-2.3-2.2-5-3.2-7.4c-0.3-0.8-1.3-4.5-2.6-4.5c-0.3,0-0.9,0.4-0.3,0.4
			c0.8,0,2.4,5.1,2.7,5.8c0.8,2,1.5,4.1,2.6,6C-214.2,43.2-213.4,42.9-213.5,42.8L-213.5,42.8z"/>
		<path fill="#E56D26" d="M-212.4,45.1c0.6,0.5,0.9,1.6,1.2,2.3c0.7,1.5,1.3,3.1,1.9,4.6c0.6,1.3,1.6,5.3,3.3,5.8
			c0.2,0.1,0.9-0.3,0.6-0.3c-1.7-0.5-2.9-5.2-3.5-6.6c-0.7-1.7-1.3-4.8-2.8-6C-211.9,44.7-212.6,45-212.4,45.1L-212.4,45.1z"/>
		<path fill="#E56D26" d="M-213.2,44.2c0.1,0.2,0.1,0.4,0.3,0.5c0.2,0.1,0.6,0,0.7-0.2c0.1-0.3,0.3-0.7,0-0.9
			c-0.2-0.2-0.7-0.1-0.9-0.1c-0.3,0.1-0.5,0.3-0.6,0.6c0,0.4,0.4,0.6,0.7,0.8c0.2,0.1,0.7,0,0.7-0.3c0-0.5-0.1-1-0.4-1.4
			c-0.1-0.2-0.6,0-0.8,0.1c-0.6,0.8-0.3,1.7,0.7,1.9c0.2,0,0.6-0.1,0.6-0.2c0.1-0.6,0-1.1-0.3-1.6c-0.1-0.1-0.2-0.1-0.3-0.1
			c-0.7,0.1-1.5,0.4-1.6,1.3c0,0.5,0.4,1.1,1,1.1c0.8,0.1,1.4-0.7,1.2-1.5c-0.2-1-1.5-1.2-2.4-0.9c-0.5,0.2,0,0.4,0.3,0.3
			c0.6-0.2,1.2,0.4,1.3,1c0.1,0.3,0,0.6-0.2,0.8c-0.1,0.2,0.3,0,0.2,0c-0.1,0-0.1-0.1-0.2-0.1c-0.6-0.5-0.5-1.4,0.3-1.5
			c-0.1,0-0.2-0.1-0.3-0.1c0.2,0.5,0.4,1,0.3,1.5c0.2-0.1,0.4-0.2,0.6-0.2c-0.7-0.2-0.8-1.1-0.4-1.6c-0.3,0-0.5,0.1-0.8,0.1
			c0.3,0.4,0.4,0.9,0.4,1.4c0.2-0.1,0.5-0.2,0.7-0.3c-0.2-0.1-0.8-0.5-0.5-0.8c-0.2,0.1-0.2,0-0.1,0.2c0.1,0.2,0,0.5-0.1,0.7
			c0.2-0.1,0.5-0.2,0.7-0.2c-0.2-0.1-0.1-0.2-0.2-0.3C-212.6,43.7-213.3,44-213.2,44.2L-213.2,44.2z"/>
	</g>
</g>
<g>
	<g>
		<path fill="#E56D26" d="M-8,16.7c1.9,4.3,0.5,9.9-3.1,13c-4.7,4-11,2.9-14.1-1.9c-2.3-3.6-0.7-8.2,1.3-11.5c1.2-2,3-3.5,5.1-4.4
			c2.8-1.2,9.5-0.9,10.7,2.8c0.1,0.2,0.9,0,0.8-0.2c-1.5-5-9.9-4-13.4-2c-4.8,2.7-7.7,9.8-5.7,14.9c2.1,5.1,7.4,5.9,12.1,4.5
			c6.2-1.9,9.6-9.3,7-15.2C-7.4,16.2-8.1,16.5-8,16.7L-8,16.7z"/>
		<path fill="#E56D26" d="M2.3,57.5c0.1,0.5,0,1.7,0.8,1.7c0.9,0,1.7-0.6,2.4-1.2c2.4-2.1,2.8-5.7,2.1-8.7c0-0.2-0.4-0.1-0.5,0
			c-2.2,1-4.2,2.9-5.3,5.1c-0.1,0.2,0.7,0.1,0.8-0.1c0.9-2,2.8-3.8,4.8-4.7c-0.2,0-0.4,0-0.5,0c0.4,1.9,0.3,3.8-0.2,5.7
			c-0.3,0.9-0.8,1.7-1.4,2.4c-0.2,0.3-1.7,1.8-1.9,0.7C3.2,58,3.2,57.6,3,57.3C3,57,2.2,57.2,2.3,57.5L2.3,57.5z"/>
		<path fill="#E56D26" d="M-25.9,41.2c1.1-2.4,3-4.6,4.5-6.8c1.1-1.6,3.1-4,3-6.1c0-0.2-0.8-0.1-0.8,0.2c0.1,2.4-2.3,5.1-3.6,6.9
			c-1.3,1.9-2.9,3.8-3.9,5.9C-26.8,41.6-26,41.5-25.9,41.2L-25.9,41.2z"/>
		<path fill="#E56D26" d="M-41.4,50.6c-0.1,2.2-0.5,6,1.3,7.6c1.4,1.3,5.9,0.7,7.6,0.3c0.1,0,0.4-0.1,0.4-0.3
			c-0.6-1.8-1.6-3.2-2.8-4.6c-0.7-0.8-1.4-1.5-2.1-2.3c-0.6-0.7-2.3-2-1.2-2.7c2.8-1.7,6.1-2.9,9.1-4c0.5-0.2,0-0.4-0.3-0.3
			c-3.3,1.2-7.4,2.4-10.2,4.7c-0.1,0.1-0.1,0.1-0.1,0.2c1.2,1.7,2.6,3.2,4,4.7c0.8,1,1.6,2,2.2,3.1c1,1.9-2.4,1.4-3.3,1.3
			c-2.5-0.1-3.3-1-3.7-3.4c-0.2-1.5-0.2-3-0.1-4.5C-40.6,50.2-41.4,50.4-41.4,50.6L-41.4,50.6z"/>
		<path fill="#E56D26" d="M-27.2,42.5c-0.2-0.2-0.3-0.4-0.6-0.4c-0.2,0-0.6,0-0.6,0.2c-0.1,0.7,0.4,1.3,0.9,1.8
			c0.1,0.1,0.7,0,0.8-0.2c0-0.6-0.2-1.1-0.6-1.4c-0.2-0.1-0.6,0-0.7,0.2c-0.3,0.3-0.4,0.7,0,0.9c0.4,0.2,1,0,1.3-0.3
			c0.4-0.4,0.1-1.2-0.4-1.4c-0.6-0.3-1.4,0-1.8,0.5c-0.7,0.9,0.8,2.4,1.7,2.4c1.6,0.1,1.3-1.7,1.3-2.7c0-0.2-0.8-0.1-0.8,0.2
			c0,0.6,0.1,1.2-0.1,1.8c-0.1,0.2-0.2,0.2,0,0.2c-0.2,0-0.3-0.1-0.4-0.2c-0.3-0.2-0.6-0.5-0.8-0.8c-0.2-0.3-0.3-0.6-0.2-0.9
			c0.1-0.7,0.7-0.2,0.8,0.2c0,0.1,0,0.3,0,0.4c0,0,0,0.1-0.1,0.1c0.1-0.1,0.2,0,0.1-0.1c-0.3-0.1,0-0.5,0.1-0.6
			c-0.2,0.1-0.5,0.1-0.7,0.2c0.4,0.3,0.6,0.7,0.6,1.2c0.3-0.1,0.5-0.1,0.8-0.2c-0.4-0.4-1-1-0.8-1.6c-0.2,0.1-0.4,0.2-0.6,0.2
			c0.2,0,0.3,0.2,0.4,0.3C-27.8,42.9-27.1,42.7-27.2,42.5L-27.2,42.5z"/>
		<path fill="#E56D26" d="M-5.5,42.8c-1.4-2.3-2.2-5-3.2-7.4c-0.3-0.8-1.3-4.5-2.6-4.5c-0.3,0-0.9,0.4-0.3,0.4
			c0.8,0,2.4,5.1,2.7,5.8c0.8,2,1.5,4.1,2.6,6C-6.2,43.2-5.4,42.9-5.5,42.8L-5.5,42.8z"/>
		<path fill="#E56D26" d="M-4.4,45.1c0.6,0.5,0.9,1.6,1.2,2.3C-2.6,49-2,50.5-1.3,52c0.6,1.3,1.6,5.3,3.3,5.8
			c0.2,0.1,0.9-0.3,0.6-0.3c-1.7-0.5-2.9-5.2-3.5-6.6c-0.7-1.7-1.3-4.8-2.8-6C-3.9,44.7-4.6,45-4.4,45.1L-4.4,45.1z"/>
		<path fill="#E56D26" d="M-5.2,44.2c0.1,0.2,0.1,0.4,0.3,0.5c0.2,0.1,0.6,0,0.7-0.2c0.1-0.3,0.3-0.7,0-0.9
			c-0.2-0.2-0.7-0.1-0.9-0.1c-0.3,0.1-0.5,0.3-0.6,0.6c0,0.4,0.4,0.6,0.7,0.8c0.2,0.1,0.7,0,0.7-0.3c0-0.5-0.1-1-0.4-1.4
			c-0.1-0.2-0.6,0-0.8,0.1C-5.9,44-5.6,45-4.7,45.2c0.2,0,0.6-0.1,0.6-0.2c0.1-0.6,0-1.1-0.3-1.6c-0.1-0.1-0.2-0.1-0.3-0.1
			c-0.7,0.1-1.5,0.4-1.6,1.3c0,0.5,0.4,1.1,1,1.1c0.8,0.1,1.4-0.7,1.2-1.5c-0.2-1-1.5-1.2-2.4-0.9c-0.5,0.2,0,0.4,0.3,0.3
			c0.6-0.2,1.2,0.4,1.3,1c0.1,0.3,0,0.6-0.2,0.8c-0.1,0.2,0.3,0,0.2,0c-0.1,0-0.1-0.1-0.2-0.1c-0.6-0.5-0.5-1.4,0.3-1.5
			c-0.1,0-0.2-0.1-0.3-0.1c0.2,0.5,0.4,1,0.3,1.5c0.2-0.1,0.4-0.2,0.6-0.2c-0.7-0.2-0.8-1.1-0.4-1.6c-0.3,0-0.5,0.1-0.8,0.1
			c0.3,0.4,0.4,0.9,0.4,1.4c0.2-0.1,0.5-0.2,0.7-0.3c-0.2-0.1-0.8-0.5-0.5-0.8c-0.2,0.1-0.2,0-0.1,0.2c0.1,0.2,0,0.5-0.1,0.7
			c0.2-0.1,0.5-0.2,0.7-0.2c-0.2-0.1-0.1-0.2-0.2-0.3C-4.6,43.7-5.3,44-5.2,44.2L-5.2,44.2z"/>
	</g>
</g>
<g>
	<g>
		<path fill="#E56D26" d="M-52.2,10.2c4.9,10.5-11.5,19.8-17.1,9.5c-1.9-3.4-0.1-7.5,1.9-10.3c1.6-2.2,3.9-3.6,6.6-4.1
			c2.6-0.5,7.7,0,8.6,3c0.1,0.3,0.8,0,0.7-0.2c-1.3-4.4-9.7-3.9-12.8-2.1c-4.4,2.6-7.7,8.1-6.1,13.1c3.7,12,24.5,2.7,18.9-9.2
			C-51.6,9.7-52.3,10-52.2,10.2L-52.2,10.2z"/>
		<path fill="#E56D26" d="M-52.8,36.4c0.5-2.7-1.5-6.2-2.5-8.6c-1-2.4-2-5.2-3.6-7.3c-0.1-0.2-0.9,0.1-0.7,0.3
			c1.5,2.1,2.5,4.9,3.5,7.3c1,2.3,3,5.9,2.5,8.5C-53.6,36.8-52.8,36.6-52.8,36.4L-52.8,36.4z"/>
		<path fill="#E56D26" d="M-69.9,47.3c0.7-0.1,1.4-0.6,2-0.9c1.9-0.9,3.7-1.9,5.5-2.9c1.9-1,3.8-2.1,5.7-3.3c0.6-0.4,2-1.1,2.2-1.9
			c0.1-0.3-0.7-0.1-0.7,0.1c-0.2,0.9-2,1.7-2.7,2.1c-1.6,1-3.2,1.9-4.9,2.8c-1.8,1-5.2,3.4-6.9,3.5C-70.1,47-70.4,47.4-69.9,47.3
			L-69.9,47.3z"/>
		<path fill="#E56D26" d="M-70,47.2c0.2,1.8,2.4,2.9,3.7,4c0.8,0.6,2.1,2,3.2,1.9c1.4-0.1,1-1.3,0.7-2.3c-0.9-2.4-3.1-4.3-5-5.8
			c-0.2-0.2-0.9,0.1-0.7,0.3c1.4,1,2.6,2.2,3.7,3.5c0.6,0.8,1.1,1.6,1.4,2.6c0.1,0.4,0.2,0.7,0.2,1.1c0,0.3-0.6-0.1-0.7-0.2
			c-0.9-0.5-1.7-1.2-2.5-1.8c-1.2-0.9-2.9-1.9-3.1-3.5C-69.2,46.7-70,46.9-70,47.2L-70,47.2z"/>
		<path fill="#E56D26" d="M-61.4,55.9c0.7-0.9,0.4-3.1,0.5-4.1c0.1-3.3,0.1-6.6,0.1-10c0-5.7-0.1-11.5-0.2-17.2
			c0-0.2-0.8-0.1-0.7,0.2c0,4.7,0.1,9.4,0.2,14.2c0,3.8,0,7.6-0.1,11.4c0,1.3,0.4,4.4-0.5,5.6C-62.3,56.2-61.6,56.1-61.4,55.9
			L-61.4,55.9z"/>
		<path fill="#E56D26" d="M-61.5,55.4c-0.9,1.1-1.2,2.4-2,3.6c-0.1,0.1,0.1,0.2,0.2,0.2c1.3,0,2.6-0.5,3.9-0.7
			c2.1-0.3,4.2-0.2,6.3-0.5c0.2,0,0.7-0.3,0.3-0.4c-1.7-0.2-3.3-0.7-4.8-1.3c-1.1-0.4-2.4-0.4-3.4-1.1c-0.2-0.2-0.9,0.1-0.7,0.3
			c1,0.8,2.3,0.8,3.5,1.2c1.7,0.6,3.2,1.1,5,1.4c0.1-0.1,0.2-0.3,0.3-0.4c-1.1,0.1-2.3-0.1-3.4,0c-1.4,0.1-2.7,0.4-4.1,0.6
			c-0.5,0.1-2.4,0.9-1.8-0.2c0.5-0.9,0.8-1.9,1.5-2.7C-60.6,55.2-61.4,55.2-61.5,55.4L-61.5,55.4z"/>
		<path fill="#E56D26" d="M-55.1,38.3c0.6,0.3,1.5,0.1,1.4-0.7c-0.1-0.9-1.3-0.3-1.6,0c0,0,0,0.1,0,0.1c0.2,0.5,0.6,0.6,1.2,0.5
			c0.6-0.2,0.7-0.9,0.5-1.4c0-0.1-0.2-0.1-0.3-0.1c-0.5,0.1-0.9,0.4-1.1,0.9c-0.1,0.3-0.1,0.8,0.3,0.9c1.3,0.1,1.4-1.6,0.5-2.1
			c-0.2-0.1-0.6,0-0.7,0.2c-0.1,0.4,0,0.7,0.2,1.1c0.1,0.2,0.6,0,0.7-0.1c0.1-0.2,0.2-0.3,0.3-0.5c0.1-0.3-0.5-0.1-0.6-0.1
			c-0.6,0.4-0.9,1.3-0.1,1.7c0.2,0.1,0.5,0,0.6-0.2c0.4-0.5,0.4-1.2,0.2-1.8c-0.1-0.2-0.6-0.1-0.7,0c-0.2,0.2-0.3,0.4-0.4,0.6
			c-0.1,0.3,0.7,0.1,0.7-0.1c0-0.2,0.1-0.3,0.2-0.4c-0.2,0-0.4,0-0.7,0c0.1,0.5,0.2,1.1-0.2,1.5c0.2-0.1,0.4-0.1,0.6-0.2
			c-0.4-0.3-0.4-0.9,0-1.2c-0.2,0-0.4,0-0.6-0.1c0,0.2-0.1,0.3-0.2,0.4c0.2,0,0.5-0.1,0.7-0.1c-0.2-0.3-0.2-0.6-0.1-0.9
			c-0.2,0.1-0.4,0.2-0.7,0.2c0.4,0.2,0.6,1,0.3,1.4c0.2-0.2,0.2,0.2,0.2-0.1c0-0.1,0-0.2,0-0.3c0-0.1,0.1-0.5,0.3-0.5
			c-0.1,0-0.2-0.1-0.3-0.1c0.1,0.3,0.1,0.6-0.1,0.8c0.1-0.1-0.2-0.2,0-0.3c0.1-0.1-0.1-0.1,0,0c0.1,0.1,0.1,0.2,0.1,0.3
			c0,0.1,0,0.1,0,0.2c-0.1,0.1,0,0.1,0.1,0c-0.1,0-0.1,0-0.2-0.1C-54.7,37.9-55.4,38.2-55.1,38.3L-55.1,38.3z"/>
		<path fill="#E56D26" d="M-53.7,37.4c0.2-0.4,0-0.7-0.4-0.8c-0.2,0-0.5,0-0.6,0.2c-0.1,0.5,0,1,0.5,1.2c0.2,0.1,0.5,0,0.6-0.1
			c0.4-0.4,0.5-1.1,0.1-1.5c-0.5-0.6-1.3,0.1-1.5,0.5c-0.7,1.3,1.9,1.4,1.8,0.3c-0.1-0.9-2.2-0.5-2.1,0.4c0.1,0.6,0.7,0.8,1.2,0.4
			c0.4-0.3,0.2-1.2-0.1-1.5c-0.2-0.1-0.5,0-0.6,0.1c-0.2,0.2-0.4,0.5-0.3,0.8c0,0.4,0.3,0.6,0.7,0.6c0.6-0.1,1-0.6,0.9-1.2
			c-0.1-0.6-1-0.6-1.4-0.3c-0.4,0.3-0.2,1.1,0.1,1.4c0.2,0.2,0.6,0,0.7-0.1c0.1-0.2,0.3-0.3,0.4-0.5c0.1-0.3-0.6-0.1-0.7,0
			c-0.9,1.2,1.2,1.7,1.9,0.9c0.5-0.6,0.1-1.3-0.5-1.6c-0.7-0.3-1.6-0.2-2.3,0.1c-0.1,0.1-0.2,0.2-0.1,0.3c0.2,0.1,0.4,0,0.5-0.1
			c0.7-0.4,2,0.1,1.7,1.1c-0.1,0.3-0.3,0.2-0.5,0.1c-0.3-0.2-0.3-0.5-0.1-0.8c-0.2,0-0.5,0-0.7,0c-0.1,0.2-0.2,0.3-0.3,0.4
			c0.2,0,0.5-0.1,0.7-0.1c-0.1-0.1-0.2-0.3-0.3-0.5c0-0.1,0-0.2,0-0.3c0,0,0-0.1,0-0.1c0.1-0.1,0-0.1-0.1,0c0.3,0.1,0.3,0.9,0.1,0.9
			c0.1,0,0.2,0,0.3,0.1c-0.2-0.3-0.3-0.7,0-1c-0.2,0-0.4,0.1-0.6,0.1c0.2,0.2,0.2,0.4,0.2,0.6c0,0.1,0,0.2,0,0.4
			c-0.1,0.2,0,0.2,0.4,0c-0.1,0-0.2-0.2-0.2-0.2c-0.2-0.4,0.3-0.6,0.5-0.3c0.1,0.1,0.1,0.2,0,0.3c0,0,0,0.1-0.1,0.1c0.1,0,0.1,0,0,0
			c-0.3-0.1-0.3-0.4-0.3-0.6c0-0.1,0.1-0.2,0.1-0.3c0.2-0.1,0.1-0.2-0.1-0.1c0.1,0,0.2,0.2,0.2,0.3c0.1,0.3,0.1,0.7-0.1,0.9
			c0.2,0,0.4-0.1,0.6-0.1c-0.4-0.2-0.5-0.6-0.4-1c-0.2,0.1-0.4,0.2-0.6,0.2c0.3,0.1,0.2,0.3,0.1,0.5C-54.5,37.8-53.8,37.7-53.7,37.4
			L-53.7,37.4z"/>
	</g>
</g>
<g>
	<g>
		<path fill="#E56D26" d="M-106.5,36.5c1.1-1.4,1.9-3.3,2.7-4.9c0.3-0.6,2.8-5.6,3-5.5c0.2,0.1,0.9-0.3,0.6-0.3
			c-1.3-0.4-2.3,2-2.8,2.8c-1.4,2.6-2.4,5.6-4.2,7.9C-107.4,36.8-106.6,36.7-106.5,36.5L-106.5,36.5z"/>
		<path fill="#E56D26" d="M-89.8,13.1c-1.4-4.6-9.6-3.6-12.9-2c-4.5,2.2-7.6,8.4-6.1,13.1c3.7,12,24.5,2.7,19-9.2
			c-0.1-0.2-0.9,0-0.8,0.2c2.4,5-0.4,11-5.3,13.1c-4.7,2.1-9.4,0.7-11.8-3.7c-1.8-3.4-0.1-7.5,1.9-10.3c1.6-2.2,3.9-3.6,6.5-4.1
			c2.5-0.5,7.7,0,8.6,3C-90.5,13.6-89.7,13.4-89.8,13.1L-89.8,13.1z"/>
		<path fill="#E56D26" d="M-92.6,38.6c0.4-1.8,0-3.8-0.3-5.6c-0.3-1.5-0.6-3.5-1.5-4.8c-0.1-0.2-0.9,0.1-0.7,0.3
			c0.8,1.2,1,2.9,1.3,4.3c0.4,1.9,0.9,4.1,0.4,6C-93.4,39-92.6,38.9-92.6,38.6L-92.6,38.6z"/>
		<path fill="#E56D26" d="M-93,40.7c-0.1,3.1-1.1,6.2-1.6,9.2c-0.5,2.5-1.7,6.1-1.1,8.7c0.1,0.2,0.8,0,0.8-0.2c0-0.1,0-0.3,0-0.4
			c0-0.2-0.8-0.1-0.8,0.2c0,0.1,0,0.3,0,0.4c0.3-0.1,0.5-0.1,0.8-0.2c-0.6-2.7,0.7-6.7,1.2-9.4c0.5-2.8,1.4-5.7,1.5-8.6
			C-92.2,40.3-93,40.4-93,40.7L-93,40.7z"/>
		<path fill="#E56D26" d="M-95.7,58.3c1.3,1.2,3.6,0.8,5.2,0.8c1.3,0,2.7,0.1,4-0.4c1.4-0.6-0.2-1.7-0.9-2.1c-2.3-1.2-5-1.3-7.5-1.3
			c-0.2,0-0.9,0.4-0.3,0.4c1.8,0,3.6,0,5.4,0.5c0.8,0.2,4.8,2,2.4,2.4c-1,0.2-1.9,0.1-2.9,0.1c-1.4,0-3.3,0.4-4.5-0.7
			C-95.1,57.9-95.9,58.2-95.7,58.3L-95.7,58.3z"/>
		<path fill="#E56D26" d="M-121.4,47.2c2.5-1.5,5-3,7.5-4.5c1.4-0.8,2.7-1.7,4-2.6c0.4-0.3,1.4-0.8,1.6-1.4c0.1-0.2-0.7-0.1-0.8,0.1
			c-0.2,0.6-1.5,1.3-2.1,1.7c-1.5,1-3,2-4.6,2.9c-2,1.2-4.1,2.4-6.1,3.7C-122.3,47.3-121.6,47.3-121.4,47.2L-121.4,47.2z"/>
		<path fill="#E56D26" d="M-121.6,48.8c-0.6-1.3-1.7-2.1-2.4-3.3c-0.1-0.2-0.7,0-0.8,0.2c-0.6,1.3-0.8,3-1.2,4.4
			c-0.5,1.8-1.4,3.4-1.9,5.2c-0.1,0.2,0.7,0.1,0.8-0.1c0.8-1.3,1.7-2.4,2.8-3.5C-123.4,50.9-122.6,49.5-121.6,48.8
			c0.5-0.2-0.2-0.3-0.4-0.1c-1,0.6-1.6,1.5-2.3,2.4c-1.2,1.5-2.5,2.6-3.5,4.2c0.3,0,0.5,0,0.8-0.1c0.5-1.6,1.3-2.9,1.7-4.5
			c0.4-1.7,0.6-3.6,1.3-5.2c-0.3,0.1-0.5,0.1-0.8,0.2c0.7,1.2,1.8,2,2.4,3.3C-122.3,49.3-121.5,49-121.6,48.8L-121.6,48.8z"/>
		<path fill="#E56D26" d="M-109,38.9c0.3,0,0.8,0,1-0.3c0.3-0.3,0-0.8-0.3-0.9c-0.1-0.1-0.7,0-0.8,0.2c-0.1,0.6,0.2,0.9,0.8,1
			c0.1,0,0.5-0.1,0.6-0.2c0.1-0.7-0.3-1.3-1.1-1.2c-0.7,0.1-1.1,0.6-0.6,1.2c0.1,0.1,0.4,0,0.5,0c0.4-0.2,0.7-0.4,0.8-0.9
			c0-0.2-0.4-0.1-0.5-0.1c-0.5,0.2-1,0.7-0.6,1.2c0.4,0.5,1.2,0.3,1.6,0c0,0,0.1-0.1,0.1-0.1c-0.1-0.4-0.2-0.8-0.5-1.1
			c-0.2-0.1-0.5,0-0.7,0.1c-1.3,1,0.5,2.7,1.7,1.9c0.6-0.4,0.7-1.5,0.2-2c-0.5-0.5-1.4-0.4-2-0.4c-0.2,0-0.9,0.4-0.3,0.4
			c0.4,0,0.9,0,1.4,0.1c0.6,0.2,0.6,1,0.4,1.5c0,0.1-0.1,0.2-0.1,0.3c-0.1,0.1,0.1,0.1-0.1,0c-0.2-0.1-0.4-0.2-0.5-0.4
			c-0.3-0.4-0.4-0.9,0-1.2c-0.2,0-0.5,0.1-0.7,0.1c0.3,0.3,0.4,0.6,0.5,1c0,0,0.1-0.1,0.1-0.1c-0.2,0.1-0.6-0.7-0.1-0.9
			c-0.2,0-0.4,0-0.5-0.1c0,0.2-0.1,0.4-0.3,0.5c0.2,0,0.3,0,0.5,0c-0.1-0.1-0.2-0.3-0.2-0.5c0-0.1,0.1-0.1-0.1,0c0,0,0.1,0,0.1,0
			c0.4,0.1,0.4,0.6,0.4,0.9c0.2-0.1,0.4-0.2,0.6-0.2c-0.3,0-0.4-0.5-0.3-0.7c-0.3,0.1-0.5,0.1-0.8,0.2c0.1,0.1,0.2,0.1,0.2,0.2
			c0.1,0.2-0.1,0.3,0.3,0.3c-0.2,0-0.4,0-0.6,0.1C-109.1,38.8-109.1,38.9-109,38.9L-109,38.9z"/>
		<path fill="#E56D26" d="M-93.5,40.4c0.6,0.3,1.6,0,1.5-0.7c-0.1-0.9-1.3-0.3-1.7,0.1c0,0,0,0.1,0,0.1c0.2,0.5,0.7,0.6,1.2,0.4
			c0.6-0.2,0.7-0.8,0.5-1.3c0-0.1-0.2-0.1-0.3-0.1c-0.5,0.1-0.9,0.3-1.1,0.8c-0.1,0.3-0.2,0.9,0.2,0.9c0.5,0,1-0.2,1.2-0.7
			c0.1-0.5-0.1-1.1-0.5-1.4c-0.2-0.1-0.7,0-0.8,0.2c-0.1,0.4-0.1,0.7,0.1,1c0.1,0.2,0.6,0,0.8-0.1c0.1-0.2,0.2-0.3,0.3-0.5
			c0.1-0.3-0.6,0-0.7,0c-0.6,0.4-0.8,1.2-0.1,1.6c0.2,0.1,0.6,0,0.7-0.2c0.4-0.5,0.4-1.1,0.2-1.7c-0.1-0.2-0.7,0-0.8,0.1
			c-0.2,0.2-0.2,0.3-0.3,0.6c-0.1,0.2,0.7,0.1,0.8-0.1c0.1-0.2,0.1-0.3,0.2-0.5c-0.3,0-0.5,0.1-0.8,0.1c0.1,0.5,0.2,1.1-0.2,1.6
			c0.2-0.1,0.5-0.1,0.7-0.2c-0.5-0.3-0.4-0.9,0-1.3c-0.2,0-0.5,0-0.7,0c0,0.2-0.1,0.3-0.2,0.4c0.3,0,0.5-0.1,0.8-0.1
			c-0.2-0.3-0.2-0.6-0.1-0.9c-0.3,0.1-0.5,0.1-0.8,0.2c0.4,0.2,0.7,1,0.4,1.4c0.2-0.3,0.3,0.2,0.2-0.1c0-0.1,0-0.2,0-0.3
			c0-0.2,0.2-0.5,0.3-0.6c-0.1,0-0.2,0-0.3-0.1c0.1,0.3,0.1,0.6-0.1,0.9c0.2,0,0.2,0,0.1-0.1c-0.1-0.1-0.1-0.2-0.1-0.3
			c0.2-0.2-0.1-0.1,0,0c0.1,0.1,0.1,0.3,0.1,0.4c0,0.1,0,0.1-0.1,0.2c0.3,0,0.4-0.1,0.2-0.1c-0.1,0-0.1,0-0.2-0.1
			C-93,40-93.7,40.3-93.5,40.4L-93.5,40.4z"/>
		<path fill="#E56D26" d="M-92,39.5c0.2-0.4,0.1-0.7-0.3-0.8c-0.2-0.1-0.7,0-0.7,0.2c-0.1,0.5,0,1,0.5,1.2c0.2,0.1,0.5,0,0.7-0.2
			c0.4-0.4,0.4-1.1,0-1.5c-0.5-0.5-1.3,0.2-1.5,0.7c-0.6,1.2,1.8,1.4,1.8,0.2c0-0.9-2.1-0.5-2.2,0.4c0,0.7,0.8,0.7,1.2,0.4
			c0.4-0.3,0.2-1.2-0.1-1.4c-0.2-0.2-0.6,0-0.7,0.2c-0.5,0.5-0.3,1.5,0.5,1.3c0.6-0.2,1-0.6,0.8-1.2c-0.2-0.5-1.1-0.5-1.4-0.2
			c-0.4,0.3-0.3,1,0.1,1.4c0.2,0.1,0.6,0,0.7-0.2c0.1-0.2,0.3-0.3,0.4-0.5c0.1-0.2-0.7,0-0.8,0.1c-0.4,0.5-0.3,0.9,0.3,1.2
			c0.5,0.2,1.2,0,1.6-0.3c0.5-0.5,0.1-1.3-0.5-1.6c-0.7-0.3-1.7-0.2-2.3,0.1c-0.5,0.2,0.3,0.3,0.5,0.2c0.7-0.4,2,0.2,1.7,1.1
			c-0.1,0.3-0.2,0.3-0.5,0.1c-0.3-0.2-0.3-0.5-0.1-0.8c-0.3,0-0.5,0-0.8,0.1c-0.1,0.2-0.2,0.3-0.3,0.4c0.2-0.1,0.5-0.1,0.7-0.2
			c-0.1-0.1-0.2-0.3-0.3-0.5c0-0.1,0-0.2,0-0.3c0-0.3,0.1-0.1-0.1-0.1c0.2,0.1,0.2,0.3,0.3,0.5c0,0.1,0,0.2,0,0.3
			c0,0.1-0.2,0.2-0.1,0.2c0.1,0,0.2,0,0.3,0c-0.3-0.3-0.3-0.7,0-1c-0.2,0.1-0.5,0.1-0.7,0.2c0.2,0.2,0.2,0.4,0.2,0.7
			c0,0.1,0,0.2,0,0.4c-0.1,0.2,0.1,0.2,0.4-0.1c-0.1-0.1-0.2-0.2-0.2-0.2c-0.2-0.4,0.2-0.6,0.5-0.3c0.1,0.1,0.1,0.2,0,0.3
			c0,0,0,0.1-0.1,0.1c0.1,0,0.1,0,0-0.1c-0.3-0.1-0.3-0.4-0.3-0.6c0-0.1,0.1-0.2,0.1-0.3c0.1-0.1,0.1-0.1-0.1-0.1
			c0.1,0.1,0.2,0.2,0.2,0.4c0.1,0.3,0,0.6-0.2,0.9c0.2-0.1,0.5-0.1,0.7-0.2c-0.4-0.2-0.5-0.6-0.4-1c-0.2,0.1-0.5,0.2-0.7,0.2
			c0.3,0.1,0.3,0.3,0.2,0.6C-92.8,39.8-92.1,39.7-92,39.5L-92,39.5z"/>
		<path fill="#E56D26" d="M-109,38.1c0.4-0.2,0.7-0.7,0.2-1.1c-0.2-0.1-0.6,0-0.7,0.2c-0.8,1,1.2,1.6,1.7,0.7
			c0.2-0.4-0.3-0.9-0.6-1.1c-0.4-0.3-1-0.1-1.4,0.1c0,0-0.1,0.1-0.1,0.1c0.2,0.9,1.1,1.7,2,1c0.4-0.2,0.7-0.7,0.3-1.1
			c-0.3-0.3-0.9-0.1-1.1,0.2c-0.6,0.6,0,1.3,0.6,1.5c0.3,0.1,0.7,0,1-0.2c0.3-0.2,0.2-0.6,0-0.9c-0.1-0.2-0.9,0-0.8,0.2
			c0.1,0.1,0.1,0.3,0.1,0.4c0,0.3-0.2,0,0.3,0c-0.1,0-0.1,0-0.2,0c-0.3-0.1-0.5-0.4-0.6-0.6c0-0.2,0-0.3,0.1-0.4
			c-0.1,0-0.2,0.1-0.3,0.1c0.1,0,0.1,0.1,0.1,0.2c0.1,0.2-0.1,0.4-0.2,0.5c-0.2,0.1-0.7-0.9-0.7-1.1c0,0-0.1,0.1-0.1,0.1
			c-0.1,0-0.2,0,0,0.1c0.1,0,0.2,0.1,0.3,0.2c0.1,0.1,0.2,0.3,0.3,0.5c0,0.1,0,0.1,0,0.2c0,0.1,0.1,0.1-0.1-0.1
			c-0.2-0.2-0.3-0.5-0.1-0.7c-0.2,0.1-0.5,0.1-0.7,0.2c0.2,0.2,0.3,0.5,0.1,0.6C-109.9,38.2-109.2,38.2-109,38.1L-109,38.1z"/>
	</g>
</g>
<g>
	<g>
		<path fill="#E56D26" d="M-150.2,17c4.5,10.2-9.6,21.2-16.8,11.6c-2.9-3.8-1.1-9,1.3-12.5c1.4-2,3.3-3.4,5.6-4.2
			c2.9-1,8.8-0.5,9.9,3c0.1,0.4,0.9,0.1,0.8-0.2c-1.4-4.8-10.1-4.4-13.5-2.1c-4.6,3.1-7.8,9.5-5.6,15c2.1,5.1,7.4,6,12.1,4.6
			c6.2-1.9,9.6-9.4,7-15.3C-149.6,16.4-150.4,16.7-150.2,17L-150.2,17z"/>
		<path fill="#E56D26" d="M-149.7,41.7c0.4-1.8,0-3.8-0.3-5.6c-0.3-1.5-0.6-3.5-1.5-4.9c-0.2-0.3-0.9,0-0.7,0.3
			c0.8,1.2,1,2.9,1.3,4.2c0.4,1.9,0.9,4,0.4,6C-150.6,42.1-149.8,42-149.7,41.7L-149.7,41.7z"/>
		<path fill="#E56D26" d="M-149.9,45.4c0,2.3-0.8,4.6-1.2,6.8c-0.4,1.9-1.2,4.5-0.7,6.5c0.1,0.3,0.8,0.2,0.8-0.1c0-0.1,0-0.3,0-0.4
			c0-0.4-0.8-0.3-0.8,0.1c0,0.1,0,0.3,0,0.4c0.3,0,0.5-0.1,0.8-0.1c-0.5-2,0.5-4.9,0.9-6.9c0.4-2,1.1-4.2,1.1-6.3
			C-149.1,44.9-149.9,45-149.9,45.4L-149.9,45.4z"/>
		<path fill="#E56D26" d="M-151.8,58.4c1.3,1.2,3.4,0.9,5,0.9c1.4,0,2.9,0.1,4.2-0.4c1.5-0.6-0.4-1.9-1-2.2
			c-2.2-1.3-5.1-1.4-7.6-1.3c-0.4,0-0.6,0.6-0.1,0.6c1.8,0,3.6,0,5.3,0.5c0.8,0.2,1.5,0.5,2.2,0.9c1,0.6,0.9,1.2-0.2,1.3
			c-0.8,0.1-1.6,0.1-2.4,0.1c-1.4,0-3.5,0.4-4.7-0.7C-151.3,57.8-152.1,58.1-151.8,58.4L-151.8,58.4z"/>
		<path fill="#E56D26" d="M-165,31.1c-1.3-0.5-3.3,1.6-4.2,2.3c-1.9,1.6-3.8,3.2-5.5,5.1c-0.3,0.4,0.4,0.5,0.7,0.2
			c1.2-1.3,2.5-2.5,3.8-3.7c0.8-0.7,1.6-1.4,2.4-2c0.4-0.3,1.8-1.6,2.3-1.4C-165.1,31.7-164.5,31.3-165,31.1L-165,31.1z"/>
		<path fill="#E56D26" d="M-185.7,48.8c2-1.2,3.8-2.6,5.7-4c1.1-0.8,2.2-1.6,3.2-2.5c0.4-0.3,1.1-0.8,1.2-1.4
			c0.1-0.4-0.7-0.3-0.8,0.1c-0.1,0.6-1.2,1.2-1.7,1.6c-1,0.8-2.1,1.6-3.1,2.4c-1.6,1.2-3.3,2.4-5,3.5C-186.7,48.7-186,49-185.7,48.8
			L-185.7,48.8z"/>
		<path fill="#E56D26" d="M-185.3,49.2c-1.2-0.7-2.5-0.9-3.8-1.5c-0.2-0.1-0.7,0-0.7,0.3c0.2,1.5,1,3,1.4,4.4
			c0.6,1.8,0.7,3.6,1.2,5.4c0.1,0.3,0.8,0.2,0.8-0.1c0-1.5,0.2-3,0.4-4.5c0.2-1.3,0.1-2.9,0.7-4.1c0.2-0.4-0.6-0.4-0.8-0.1
			c-0.5,1-0.5,2.1-0.6,3.2c-0.2,1.8-0.7,3.6-0.6,5.5c0.3,0,0.5-0.1,0.8-0.1c-0.5-1.8-0.6-3.6-1.2-5.4c-0.5-1.4-1.2-2.9-1.4-4.4
			c-0.2,0.1-0.5,0.2-0.7,0.3c1.2,0.6,2.6,0.7,3.8,1.5C-185.7,49.8-185,49.4-185.3,49.2L-185.3,49.2z"/>
		<path fill="#E56D26" d="M-174.9,41c0.3,0,0.9,0,0.9-0.4c0.1-0.4,0-0.8-0.4-1c-0.2-0.1-0.7,0-0.7,0.3c-0.1,0.6,0.2,1.1,0.8,1.1
			c0.2,0,0.5-0.1,0.5-0.3c0.1-0.8-0.3-1.3-1.1-1.3c-0.8,0-1,0.7-0.6,1.3c0.1,0.2,0.4,0.1,0.5,0.1c0.4-0.2,0.7-0.5,0.7-1
			c0-0.3-0.4-0.3-0.6-0.2c-0.6,0.2-0.9,0.8-0.6,1.4c0.3,0.6,1.2,0.4,1.6,0.1c0.1-0.1,0.2-0.2,0.1-0.3c-0.1-0.5-0.2-0.8-0.6-1.1
			c-0.1-0.1-0.4-0.1-0.6,0.1c-0.6,0.5-0.7,1.2-0.2,1.8c0.4,0.5,1.2,0.8,1.8,0.4c0.6-0.4,0.8-1.5,0.3-2.1c-0.4-0.6-1.5-0.5-2.1-0.5
			c-0.2,0-0.4,0.1-0.5,0.2c-0.1,0.2,0.1,0.3,0.2,0.3c0.4,0,0.9,0,1.3,0.1c0.6,0.2,0.5,0.8,0.4,1.3c-0.1,0.5-0.4,0.3-0.7,0
			c-0.3-0.3-0.4-0.8-0.1-1.1c-0.2,0-0.4,0-0.6,0.1c0.3,0.2,0.3,0.6,0.4,0.9c0-0.1,0.1-0.2,0.1-0.3c-0.3,0.3-0.6-0.5-0.2-0.7
			c-0.2-0.1-0.4-0.1-0.6-0.2c0,0.2-0.1,0.4-0.3,0.4c0.2,0,0.4,0,0.5,0.1c-0.1-0.1-0.2-0.3-0.1-0.4c0,0-0.1,0,0,0
			c0.4,0.1,0.4,0.5,0.3,0.8c0.2-0.1,0.4-0.2,0.5-0.3c-0.3,0-0.3-0.3-0.3-0.6c-0.2,0.1-0.5,0.2-0.7,0.3c0.2,0.2,0.3,0.4,0.2,0.6
			c0.1-0.1,0.2-0.2,0.2-0.3c0,0-0.1,0-0.1,0c-0.2,0-0.4,0.1-0.5,0.2C-175.3,40.9-175.1,41-174.9,41L-174.9,41z"/>
		<path fill="#E56D26" d="M-150.5,44.5c0.7,0.3,1.5,0,1.4-0.8c-0.1-0.9-1.2-0.5-1.6-0.1c0,0-0.1,0.1-0.1,0.2
			c0.6,1.3,2.2,0.3,1.7-0.9c-0.1-0.2-0.3-0.2-0.5-0.2c-0.5,0.1-0.9,0.5-1,0.9c-0.1,0.4-0.1,0.9,0.4,0.9c1.3,0.1,1.3-1.7,0.5-2.2
			c-0.2-0.1-0.6,0-0.7,0.3c-0.1,0.4,0,0.8,0.2,1.1c0.1,0.2,0.6,0.1,0.7-0.1c0.2-0.2,0.3-0.3,0.3-0.6c0.1-0.3-0.5-0.2-0.7-0.1
			c-0.7,0.4-0.8,1.4-0.1,1.8c0.2,0.1,0.5,0.1,0.6-0.1c0.5-0.5,0.4-1.2,0.3-1.9c-0.1-0.3-0.6-0.1-0.7,0c-0.2,0.2-0.3,0.4-0.3,0.7
			c-0.1,0.4,0.7,0.3,0.8-0.1c0-0.2,0.1-0.3,0.2-0.4c-0.2,0-0.5,0-0.7,0c0.1,0.5,0.2,1-0.1,1.4c0.2,0,0.4-0.1,0.6-0.1
			c-0.4-0.3-0.3-0.8,0-1c-0.2,0-0.4-0.1-0.7-0.1c0,0.1-0.1,0.2-0.2,0.3c0.2,0,0.5,0,0.7-0.1c-0.2-0.3-0.2-0.5-0.1-0.9
			c-0.2,0.1-0.5,0.2-0.7,0.3c0.4,0.2,0.6,0.8,0.4,1.2c0.1-0.2,0.2,0.2,0.1,0c0-0.1,0-0.2,0-0.3c0.1-0.2,0.2-0.4,0.4-0.4
			c-0.2-0.1-0.3-0.1-0.5-0.2c0.1,0.2,0.1,0.3,0.1,0.5c0,0.3-0.1,0.2-0.2,0c0,0.1,0,0.1-0.1,0.2c0-0.1,0.1-0.1,0.2-0.1
			c0.1-0.1,0,0-0.1,0c0.1,0,0.1,0.1,0.1,0.2c0,0.1,0,0.2,0,0.2c0,0,0.1,0,0.1,0c-0.1,0-0.2-0.1-0.2-0.1
			C-150.3,43.8-150.9,44.3-150.5,44.5L-150.5,44.5z"/>
		<path fill="#E56D26" d="M-149.1,43.6c0.2-0.5,0.1-0.8-0.4-1c-0.2-0.1-0.6,0-0.6,0.3c-0.1,0.5,0,1,0.5,1.3c0.2,0.1,0.5,0.1,0.6-0.1
			c0.4-0.4,0.5-1.1,0.1-1.6c-0.5-0.6-1.3,0.1-1.5,0.5c-0.7,1.4,2,1.6,1.8,0.3c-0.1-1-2.3-0.6-2.2,0.4c0.1,0.6,0.8,1,1.2,0.5
			c0.3-0.4,0.3-1.2-0.1-1.5c-0.2-0.2-0.5-0.1-0.7,0.1c-0.3,0.3-0.4,0.6-0.3,1c0.1,0.4,0.4,0.6,0.8,0.5c0.6-0.2,0.9-0.7,0.7-1.4
			c-0.2-0.6-1.1-0.7-1.5-0.2c-0.4,0.4-0.1,1.1,0.3,1.5c0.2,0.1,0.5,0,0.6-0.1c0.2-0.2,0.3-0.3,0.4-0.5c0.2-0.4-0.5-0.4-0.7-0.2
			c-1,1.2,1,1.9,1.8,1.1c0.5-0.5,0.2-1.4-0.4-1.7c-0.7-0.4-1.7-0.3-2.3,0c-0.5,0.3,0,0.7,0.3,0.4c0.7-0.4,1.9-0.1,1.8,0.8
			c-0.1,0.5-1.1,0.1-0.6-0.5c-0.2-0.1-0.5-0.1-0.7-0.2c-0.1,0.2-0.2,0.3-0.3,0.4c0.2,0,0.4-0.1,0.6-0.1c-0.1-0.1-0.2-0.2-0.2-0.4
			c0-0.1-0.1-0.3,0-0.3c0.2,0.1,0.3,0.7,0.1,0.7c0.1,0,0.2,0.1,0.3,0.1c-0.2-0.3-0.3-0.6,0-0.9c-0.2,0-0.5,0-0.7,0.1
			c0.2,0.2,0.2,0.4,0.2,0.6c0,0.1,0,0.2,0,0.3c0.4,0,0.5-0.1,0.3-0.2c0,0-0.1-0.1-0.1-0.1c-0.1-0.3,0.4-0.4,0.5-0.2
			c0.1,0.1,0.1,0.2,0,0.2c0,0.1,0,0-0.1,0c-0.2,0-0.3-0.2-0.3-0.4c0-0.1,0.1-0.2,0.1-0.2c0.1-0.1,0.1-0.2,0-0.2
			c0.1,0.1,0.1,0.2,0.1,0.3c0.1,0.3,0,0.5-0.2,0.7c0.2,0,0.4-0.1,0.6-0.1c-0.4-0.2-0.4-0.5-0.3-0.9c-0.2,0.1-0.4,0.2-0.6,0.3
			c0.2,0.1,0.2,0.2,0.1,0.4C-150,43.9-149.2,43.9-149.1,43.6L-149.1,43.6z"/>
		<path fill="#E56D26" d="M-175.1,40.2c0.5-0.3,0.7-0.9,0.2-1.3c-0.2-0.1-0.5,0-0.6,0.1c-0.8,1,1.1,2,1.6,0.9
			c0.2-0.4-0.2-0.9-0.5-1.1c-0.4-0.4-1-0.3-1.4,0c-0.1,0.1-0.2,0.2-0.1,0.3c0.2,1,1.1,1.7,2.1,1.1c0.4-0.3,0.6-0.8,0.3-1.2
			c-0.3-0.3-0.9-0.2-1.1,0.1c-0.6,0.6,0.1,1.4,0.7,1.6c0.3,0.1,0.7,0.1,0.9-0.1c0.3-0.3,0.2-0.6,0.1-1c-0.2-0.3-0.9-0.1-0.8,0.2
			c0.1,0.1,0.1,0.3,0.1,0.4c0,0.1,0,0.1,0.1,0c0.1-0.1,0.2,0,0,0c-0.2-0.1-0.4-0.3-0.5-0.4c-0.1-0.1-0.1-0.2,0-0.3
			c0.1-0.1,0-0.1-0.1,0c0.1,0.1,0,0.3-0.1,0.4c-0.3,0.3-0.7-0.8-0.7-1c0,0.1-0.1,0.2-0.1,0.3c0.2-0.1,0.5,0.4,0.5,0.5
			c0,0.1,0.1,0.2,0,0.2c-0.2-0.1-0.3-0.4-0.1-0.6c-0.2,0-0.4,0.1-0.6,0.1c0.1,0.1,0.2,0.3,0,0.4C-176,40-175.5,40.4-175.1,40.2
			L-175.1,40.2z"/>
	</g>
</g>
</svg>
