<?xml version="1.0" encoding="utf-8"?>
<!-- Generator: Adobe Illustrator 18.0.0, SVG Export Plug-In . SVG Version: 6.00 Build 0)  -->
<!DOCTYPE svg PUBLIC "-//W3C//DTD SVG 1.1//EN" "http://www.w3.org/Graphics/SVG/1.1/DTD/svg11.dtd">
<svg version="1.1" id="Calque_2" xmlns="http://www.w3.org/2000/svg" xmlns:xlink="http://www.w3.org/1999/xlink" x="0px" y="0px"
	 viewBox="0 0 50 70" enable-background="new 0 0 50 70" xml:space="preserve">
<g>
	<g>
		<path fill="#E56D26" d="M34.1,27.5c1.9,4.3,0.5,9.9-3.1,13c-4.7,4-11,2.9-14.1-1.9c-2.3-3.6-0.7-8.2,1.3-11.5c1.2-2,3-3.5,5.1-4.4
			c2.8-1.2,9.5-0.9,10.7,2.8c0.1,0.2,0.9,0,0.8-0.2c-1.5-5-9.9-4-13.4-2c-4.8,2.7-7.7,9.8-5.7,14.9c2.1,5.1,7.4,5.9,12.1,4.5
			c6.2-1.9,9.6-9.3,7-15.2C34.7,27,34,27.3,34.1,27.5L34.1,27.5z"/>
		<path fill="#E56D26" d="M44.4,68.3c0.1,0.5,0,1.7,0.8,1.7c0.9,0,1.7-0.6,2.4-1.2c2.4-2.1,2.8-5.7,2.1-8.7c0-0.2-0.4-0.1-0.5,0
			c-2.2,1-4.2,2.9-5.3,5.1c-0.1,0.2,0.7,0.1,0.8-0.1c0.9-2,2.8-3.8,4.8-4.7c-0.2,0-0.4,0-0.5,0c0.4,1.9,0.3,3.8-0.2,5.7
			c-0.3,0.9-0.8,1.7-1.4,2.4c-0.2,0.3-1.7,1.8-1.9,0.7c-0.2-0.4-0.2-0.8-0.4-1.1C45.1,67.8,44.3,68,44.4,68.3L44.4,68.3z"/>
		<path fill="#E56D26" d="M16.2,52c1.1-2.4,3-4.6,4.5-6.8c1.1-1.6,3.1-4,3-6.1c0-0.2-0.8-0.1-0.8,0.2c0.1,2.4-2.3,5.1-3.6,6.9
			c-1.3,1.9-2.9,3.8-3.9,5.9C15.3,52.4,16.1,52.3,16.2,52L16.2,52z"/>
		<path fill="#E56D26" d="M0.7,61.4c-0.1,2.2-0.5,6,1.3,7.6c1.4,1.3,5.9,0.7,7.6,0.3c0.1,0,0.4-0.1,0.4-0.3
			c-0.6-1.8-1.6-3.2-2.8-4.6c-0.7-0.8-1.4-1.5-2.1-2.3c-0.6-0.7-2.3-2-1.2-2.7c2.8-1.7,6.1-2.9,9.1-4c0.5-0.2,0-0.4-0.3-0.3
			c-3.3,1.2-7.4,2.4-10.2,4.7c-0.1,0.1-0.1,0.1-0.1,0.2c1.2,1.7,2.6,3.2,4,4.7c0.8,1,1.6,2,2.2,3.1c1,1.9-2.4,1.4-3.3,1.3
			c-2.5-0.1-3.3-1-3.7-3.4c-0.2-1.5-0.2-3-0.1-4.5C1.5,61,0.7,61.2,0.7,61.4L0.7,61.4z"/>
		<path fill="#E56D26" d="M14.9,53.3c-0.2-0.2-0.3-0.4-0.6-0.4c-0.2,0-0.6,0-0.6,0.2c-0.1,0.7,0.4,1.3,0.9,1.8
			c0.1,0.1,0.7,0,0.8-0.2c0-0.6-0.2-1.1-0.6-1.4c-0.2-0.1-0.6,0-0.7,0.2c-0.3,0.3-0.4,0.7,0,0.9s1,0,1.3-0.3
			c0.4-0.4,0.1-1.2-0.4-1.4c-0.6-0.3-1.4,0-1.8,0.5c-0.7,0.9,0.8,2.4,1.7,2.4c1.6,0.1,1.3-1.7,1.3-2.7c0-0.2-0.8-0.1-0.8,0.2
			c0,0.6,0.1,1.2-0.1,1.8c-0.1,0.2-0.2,0.2,0,0.2c-0.2,0-0.3-0.1-0.4-0.2c-0.3-0.2-0.6-0.5-0.8-0.8c-0.2-0.3-0.3-0.6-0.2-0.9
			c0.1-0.7,0.7-0.2,0.8,0.2c0,0.1,0,0.3,0,0.4c0,0,0,0.1-0.1,0.1c0.1-0.1,0.2,0,0.1-0.1c-0.3-0.1,0-0.5,0.1-0.6
			c-0.2,0.1-0.5,0.1-0.7,0.2c0.4,0.3,0.6,0.7,0.6,1.2c0.3-0.1,0.5-0.1,0.8-0.2c-0.4-0.4-1-1-0.8-1.6c-0.2,0.1-0.4,0.2-0.6,0.2
			c0.2,0,0.3,0.2,0.4,0.3C14.3,53.7,15,53.5,14.9,53.3L14.9,53.3z"/>
		<path fill="#E56D26" d="M36.6,53.6c-1.4-2.3-2.2-5-3.2-7.4c-0.3-0.8-1.3-4.5-2.6-4.5c-0.3,0-0.9,0.4-0.3,0.4
			c0.8,0,2.4,5.1,2.7,5.8c0.8,2,1.5,4.1,2.6,6C35.9,54,36.7,53.7,36.6,53.6L36.6,53.6z"/>
		<path fill="#E56D26" d="M37.7,55.9c0.6,0.5,0.9,1.6,1.2,2.3c0.6,1.6,1.2,3.1,1.9,4.6c0.6,1.3,1.6,5.3,3.3,5.8
			c0.2,0.1,0.9-0.3,0.6-0.3c-1.7-0.5-2.9-5.2-3.5-6.6c-0.7-1.7-1.3-4.8-2.8-6C38.2,55.5,37.5,55.8,37.7,55.9L37.7,55.9z"/>
		<path fill="#E56D26" d="M36.9,55c0.1,0.2,0.1,0.4,0.3,0.5c0.2,0.1,0.6,0,0.7-0.2c0.1-0.3,0.3-0.7,0-0.9c-0.2-0.2-0.7-0.1-0.9-0.1
			c-0.3,0.1-0.5,0.3-0.6,0.6c0,0.4,0.4,0.6,0.7,0.8c0.2,0.1,0.7,0,0.7-0.3c0-0.5-0.1-1-0.4-1.4c-0.1-0.2-0.6,0-0.8,0.1
			c-0.4,0.7-0.1,1.7,0.8,1.9c0.2,0,0.6-0.1,0.6-0.2c0.1-0.6,0-1.1-0.3-1.6c-0.1-0.1-0.2-0.1-0.3-0.1c-0.7,0.1-1.5,0.4-1.6,1.3
			c0,0.5,0.4,1.1,1,1.1c0.8,0.1,1.4-0.7,1.2-1.5c-0.2-1-1.5-1.2-2.4-0.9c-0.5,0.2,0,0.4,0.3,0.3c0.6-0.2,1.2,0.4,1.3,1
			c0.1,0.3,0,0.6-0.2,0.8c-0.1,0.2,0.3,0,0.2,0c-0.1,0-0.1-0.1-0.2-0.1c-0.6-0.5-0.5-1.4,0.3-1.5c-0.1,0-0.2-0.1-0.3-0.1
			c0.2,0.5,0.4,1,0.3,1.5c0.2-0.1,0.4-0.2,0.6-0.2c-0.7-0.2-0.8-1.1-0.4-1.6c-0.3,0-0.5,0.1-0.8,0.1c0.3,0.4,0.4,0.9,0.4,1.4
			c0.2-0.1,0.5-0.2,0.7-0.3c-0.2-0.1-0.8-0.5-0.5-0.8c-0.2,0.1-0.2,0-0.1,0.2c0.1,0.2,0,0.5-0.1,0.7c0.2-0.1,0.5-0.2,0.7-0.2
			c-0.2-0.1-0.1-0.2-0.2-0.3C37.5,54.5,36.8,54.8,36.9,55L36.9,55z"/>
	</g>
</g>
</svg>
