<?xml version="1.0" encoding="utf-8"?>
<!-- Generator: Adobe Illustrator 18.0.0, SVG Export Plug-In . SVG Version: 6.00 Build 0)  -->
<!DOCTYPE svg PUBLIC "-//W3C//DTD SVG 1.1//EN" "http://www.w3.org/Graphics/SVG/1.1/DTD/svg11.dtd">
<svg version="1.1" id="Calque_2" xmlns="http://www.w3.org/2000/svg" xmlns:xlink="http://www.w3.org/1999/xlink" x="0px" y="0px"
	 viewBox="0 0 50 70" enable-background="new 0 0 50 70" xml:space="preserve">
<g>
	<g>
		<path fill="#E56D26" d="M40.7,27.7c4.5,10.2-9.6,21.2-16.8,11.6c-2.9-3.8-1.1-9,1.3-12.5c1.4-2,3.3-3.4,5.6-4.2
			c2.9-1,8.8-0.5,9.9,3c0.1,0.4,0.9,0.1,0.8-0.2C40.1,20.6,31.4,21,28,23.3c-4.6,3.1-7.8,9.5-5.6,15c2.1,5.1,7.4,6,12.1,4.6
			c6.2-1.9,9.6-9.4,7-15.3C41.3,27.1,40.5,27.4,40.7,27.7L40.7,27.7z"/>
		<path fill="#E56D26" d="M41.2,52.4c0.4-1.8,0-3.8-0.3-5.6c-0.3-1.5-0.6-3.5-1.5-4.9c-0.2-0.3-0.9,0-0.7,0.3c0.8,1.2,1,2.9,1.3,4.2
			c0.4,1.9,0.9,4,0.4,6C40.3,52.8,41.1,52.7,41.2,52.4L41.2,52.4z"/>
		<path fill="#E56D26" d="M41,56.1c0,2.3-0.8,4.6-1.2,6.8c-0.4,1.9-1.2,4.5-0.7,6.5c0.1,0.3,0.8,0.2,0.8-0.1c0-0.1,0-0.3,0-0.4
			c0-0.4-0.8-0.3-0.8,0.1c0,0.1,0,0.3,0,0.4c0.3,0,0.5-0.1,0.8-0.1c-0.5-2,0.5-4.9,0.9-6.9c0.4-2,1.1-4.2,1.1-6.3
			C41.8,55.6,41,55.7,41,56.1L41,56.1z"/>
		<path fill="#E56D26" d="M39.1,69.1c1.3,1.2,3.4,0.9,5,0.9c1.4,0,2.9,0.1,4.2-0.4c1.5-0.6-0.4-1.9-1-2.2c-2.2-1.3-5.1-1.4-7.6-1.3
			c-0.4,0-0.6,0.6-0.1,0.6c1.8,0,3.6,0,5.3,0.5c0.8,0.2,1.5,0.5,2.2,0.9c1,0.6,0.9,1.2-0.2,1.3c-0.8,0.1-1.6,0.1-2.4,0.1
			c-1.4,0-3.5,0.4-4.7-0.7C39.6,68.5,38.8,68.8,39.1,69.1L39.1,69.1z"/>
		<path fill="#E56D26" d="M25.9,41.8c-1.3-0.5-3.3,1.6-4.2,2.3c-1.9,1.6-3.8,3.2-5.5,5.1c-0.3,0.4,0.4,0.5,0.7,0.2
			c1.2-1.3,2.5-2.5,3.8-3.7c0.8-0.7,1.6-1.4,2.4-2c0.4-0.3,1.8-1.6,2.3-1.4C25.8,42.4,26.4,42,25.9,41.8L25.9,41.8z"/>
		<path fill="#E56D26" d="M5.2,59.5c2-1.2,3.8-2.6,5.7-4c1.1-0.8,2.2-1.6,3.2-2.5c0.4-0.3,1.1-0.8,1.2-1.4c0.1-0.4-0.7-0.3-0.8,0.1
			c-0.1,0.6-1.2,1.2-1.7,1.6c-1,0.8-2.1,1.6-3.1,2.4c-1.6,1.2-3.3,2.4-5,3.5C4.2,59.4,4.9,59.7,5.2,59.5L5.2,59.5z"/>
		<path fill="#E56D26" d="M5.6,59.9c-1.2-0.7-2.5-0.9-3.8-1.5c-0.2-0.1-0.7,0-0.7,0.3c0.2,1.5,1,3,1.4,4.4c0.6,1.8,0.7,3.6,1.2,5.4
			c0.1,0.3,0.8,0.2,0.8-0.1c0-1.5,0.2-3,0.4-4.5C5.1,62.6,5,61,5.6,59.9c0.2-0.5-0.6-0.5-0.8-0.2c-0.5,1-0.5,2.1-0.6,3.2
			c-0.2,1.8-0.7,3.6-0.6,5.5c0.3,0,0.5-0.1,0.8-0.1c-0.5-1.8-0.6-3.6-1.2-5.4C2.7,61.5,2,60,1.8,58.5c-0.2,0.1-0.5,0.2-0.7,0.3
			c1.2,0.6,2.6,0.7,3.8,1.5C5.2,60.5,5.9,60.1,5.6,59.9L5.6,59.9z"/>
		<path fill="#E56D26" d="M16,51.7c0.3,0,0.9,0,0.9-0.4c0.1-0.4,0-0.8-0.4-1c-0.2-0.1-0.7,0-0.7,0.3c-0.1,0.6,0.2,1.1,0.8,1.1
			c0.2,0,0.5-0.1,0.5-0.3c0.1-0.8-0.3-1.3-1.1-1.3s-1,0.7-0.6,1.3c0.1,0.2,0.4,0.1,0.5,0.1c0.4-0.2,0.7-0.5,0.7-1
			c0-0.3-0.4-0.3-0.6-0.2c-0.6,0.2-0.9,0.8-0.6,1.4c0.3,0.6,1.2,0.4,1.6,0.1c0.1-0.1,0.2-0.2,0.1-0.3c-0.1-0.5-0.2-0.8-0.6-1.1
			c-0.1-0.1-0.4-0.1-0.6,0.1c-0.6,0.5-0.7,1.2-0.2,1.8c0.4,0.5,1.2,0.8,1.8,0.4c0.6-0.4,0.8-1.5,0.3-2.1c-0.4-0.6-1.5-0.5-2.1-0.5
			c-0.2,0-0.4,0.1-0.5,0.2c-0.1,0.2,0.1,0.3,0.2,0.3c0.4,0,0.9,0,1.3,0.1c0.6,0.2,0.5,0.8,0.4,1.3s-0.4,0.3-0.7,0s-0.4-0.8-0.1-1.1
			c-0.2,0-0.4,0-0.6,0.1c0.3,0.2,0.3,0.6,0.4,0.9c0-0.1,0.1-0.2,0.1-0.3c-0.3,0.3-0.6-0.5-0.2-0.7c-0.2-0.1-0.4-0.1-0.6-0.2
			c0,0.2-0.1,0.4-0.3,0.4c0.2,0,0.4,0,0.5,0.1c-0.1-0.1-0.2-0.3-0.1-0.4c0,0-0.1,0,0,0c0.4,0.1,0.4,0.5,0.3,0.8
			c0.2-0.1,0.4-0.2,0.5-0.3C16,51.3,16,51,16,50.7c-0.2,0.1-0.5,0.2-0.7,0.3c0.2,0.2,0.3,0.4,0.2,0.6c0.1-0.1,0.2-0.2,0.2-0.3h-0.1
			c-0.2,0-0.4,0.1-0.5,0.2C15.6,51.6,15.8,51.7,16,51.7L16,51.7z"/>
		<path fill="#E56D26" d="M40.4,55.2c0.7,0.3,1.5,0,1.4-0.8c-0.1-0.9-1.2-0.5-1.6-0.1c0,0-0.1,0.1-0.1,0.2c0.6,1.3,2.2,0.3,1.7-0.9
			c-0.1-0.2-0.3-0.2-0.5-0.2c-0.5,0.1-0.9,0.5-1,0.9s-0.1,0.9,0.4,0.9c1.3,0.1,1.3-1.7,0.5-2.2c-0.2-0.1-0.6,0-0.7,0.3
			c-0.1,0.4,0,0.8,0.2,1.1c0.1,0.2,0.6,0.1,0.7-0.1c0.2-0.2,0.3-0.3,0.3-0.6c0.1-0.3-0.5-0.2-0.7-0.1c-0.7,0.4-0.8,1.4-0.1,1.8
			c0.2,0.1,0.5,0.1,0.6-0.1c0.5-0.5,0.4-1.2,0.3-1.9c-0.1-0.3-0.6-0.1-0.7,0c-0.2,0.2-0.3,0.4-0.3,0.7c-0.1,0.4,0.7,0.3,0.8-0.1
			c0-0.2,0.1-0.3,0.2-0.4c-0.2,0-0.5,0-0.7,0c0.1,0.5,0.2,1-0.1,1.4c0.2,0,0.4-0.1,0.6-0.1c-0.4-0.3-0.3-0.8,0-1
			c-0.2,0-0.4-0.1-0.7-0.1c0,0.1-0.1,0.2-0.2,0.3c0.2,0,0.5,0,0.7-0.1c-0.2-0.3-0.2-0.5-0.1-0.9c-0.2,0.1-0.5,0.2-0.7,0.3
			c0.4,0.2,0.6,0.8,0.4,1.2c0.1-0.2,0.2,0.2,0.1,0c0-0.1,0-0.2,0-0.3c0.1-0.2,0.2-0.4,0.4-0.4c-0.2-0.1-0.3-0.1-0.5-0.2
			c0.1,0.2,0.1,0.3,0.1,0.5c0,0.3-0.1,0.2-0.2,0c0,0.1,0,0.1-0.1,0.2c0-0.1,0.1-0.1,0.2-0.1c0.1-0.1,0,0-0.1,0
			c0.1,0,0.1,0.1,0.1,0.2c0,0.1,0,0.2,0,0.2h0.1c-0.1,0-0.2-0.1-0.2-0.1C40.6,54.5,40,55,40.4,55.2L40.4,55.2z"/>
		<path fill="#E56D26" d="M41.8,54.3c0.2-0.5,0.1-0.8-0.4-1c-0.2-0.1-0.6,0-0.6,0.3c-0.1,0.5,0,1,0.5,1.3c0.2,0.1,0.5,0.1,0.6-0.1
			c0.4-0.4,0.5-1.1,0.1-1.6c-0.5-0.6-1.3,0.1-1.5,0.5c-0.7,1.4,2,1.6,1.8,0.3c-0.1-1-2.3-0.6-2.2,0.4c0.1,0.6,0.8,1,1.2,0.5
			c0.3-0.4,0.3-1.2-0.1-1.5c-0.2-0.2-0.5-0.1-0.7,0.1c-0.3,0.3-0.4,0.6-0.3,1c0.1,0.4,0.4,0.6,0.8,0.5c0.6-0.2,0.9-0.7,0.7-1.4
			c-0.2-0.6-1.1-0.7-1.5-0.2c-0.4,0.4-0.1,1.1,0.3,1.5c0.2,0.1,0.5,0,0.6-0.1c0.2-0.2,0.3-0.3,0.4-0.5c0.2-0.4-0.5-0.4-0.7-0.2
			c-1,1.2,1,1.9,1.8,1.1c0.5-0.5,0.2-1.4-0.4-1.7c-0.7-0.4-1.7-0.3-2.3,0c-0.5,0.3,0,0.7,0.3,0.4c0.7-0.4,1.9-0.1,1.8,0.8
			c-0.1,0.5-1.1,0.1-0.6-0.5c-0.2-0.1-0.5-0.1-0.7-0.2c-0.1,0.2-0.2,0.3-0.3,0.4c0.2,0,0.4-0.1,0.6-0.1c-0.1-0.1-0.2-0.2-0.2-0.4
			c0-0.1-0.1-0.3,0-0.3c0.2,0.1,0.3,0.7,0.1,0.7c0.1,0,0.2,0.1,0.3,0.1c-0.2-0.3-0.3-0.6,0-0.9c-0.2,0-0.5,0-0.7,0.1
			c0.2,0.2,0.2,0.4,0.2,0.6c0,0.1,0,0.2,0,0.3c0.4,0,0.5-0.1,0.3-0.2l-0.1-0.1c-0.1-0.3,0.4-0.4,0.5-0.2c0.1,0.1,0.1,0.2,0,0.2
			c0,0.1,0,0-0.1,0c-0.2,0-0.3-0.2-0.3-0.4c0-0.1,0.1-0.2,0.1-0.2c0.1-0.1,0.1-0.2,0-0.2c0.1,0.1,0.1,0.2,0.1,0.3
			c0.1,0.3,0,0.5-0.2,0.7c0.2,0,0.4-0.1,0.6-0.1c-0.4-0.2-0.4-0.5-0.3-0.9c-0.2,0.1-0.4,0.2-0.6,0.3c0.2,0.1,0.2,0.2,0.1,0.4
			C40.9,54.6,41.7,54.6,41.8,54.3L41.8,54.3z"/>
		<path fill="#E56D26" d="M15.8,50.9c0.5-0.3,0.7-0.9,0.2-1.3c-0.2-0.1-0.5,0-0.6,0.1c-0.8,1,1.1,2,1.6,0.9c0.2-0.4-0.2-0.9-0.5-1.1
			c-0.4-0.4-1-0.3-1.4,0c-0.1,0.1-0.2,0.2-0.1,0.3c0.2,1,1.1,1.7,2.1,1.1c0.4-0.3,0.6-0.8,0.3-1.2c-0.3-0.3-0.9-0.2-1.1,0.1
			c-0.6,0.6,0.1,1.4,0.7,1.6c0.3,0.1,0.7,0.1,0.9-0.1c0.3-0.3,0.2-0.6,0.1-1c-0.2-0.3-0.9-0.1-0.8,0.2c0.1,0.1,0.1,0.3,0.1,0.4
			c0,0.1,0,0.1,0.1,0s0.2,0,0,0c-0.2-0.1-0.4-0.3-0.5-0.4c-0.1-0.1-0.1-0.2,0-0.3s0-0.1-0.1,0c0.1,0.1,0,0.3-0.1,0.4
			c-0.3,0.3-0.7-0.8-0.7-1c0,0.1-0.1,0.2-0.1,0.3c0.2-0.1,0.5,0.4,0.5,0.5s0.1,0.2,0,0.2c-0.2-0.1-0.3-0.4-0.1-0.6
			c-0.2,0-0.4,0.1-0.6,0.1c0.1,0.1,0.2,0.3,0,0.4C14.9,50.7,15.4,51.1,15.8,50.9L15.8,50.9z"/>
	</g>
</g>
</svg>
