<?xml version="1.0" encoding="utf-8"?>
<!-- Generator: Adobe Illustrator 18.0.0, SVG Export Plug-In . SVG Version: 6.00 Build 0)  -->
<!DOCTYPE svg PUBLIC "-//W3C//DTD SVG 1.1//EN" "http://www.w3.org/Graphics/SVG/1.1/DTD/svg11.dtd">
<svg version="1.1" id="Calque_2" xmlns="http://www.w3.org/2000/svg" xmlns:xlink="http://www.w3.org/1999/xlink" x="0px" y="0px"
	 viewBox="0 0 595.3 841.9" enable-background="new 0 0 595.3 841.9" xml:space="preserve">
<path fill="#E56D26" d="M430.7,631.4c22.6,51.2,6,117.9-36.9,154.8c-56,47.6-131,34.5-167.9-22.6c-27.4-42.9-8.3-97.6,15.5-136.9
	c14.3-23.8,35.7-41.7,60.7-52.4c33.3-14.3,113.1-10.7,127.4,33.3c1.2,2.4,10.7,0,9.5-2.4c-17.9-59.5-117.9-47.6-159.5-23.8
	c-57.1,32.1-91.7,116.7-67.9,177.4c25,60.7,88.1,70.2,144.1,53.6c73.8-22.6,114.3-110.7,83.3-181C437.9,625.5,429.5,629,430.7,631.4
	L430.7,631.4z"/>
<path fill="#E56D26" d="M525,817.4c1.2,6,0,20.2,9.5,20.2c10.7,0,20.2-7.1,28.6-14.3c28.6-25,33.3-67.9,25-103.6c0-2.4-4.8-1.2-6,0
	c-26.2,11.9-50,34.5-63.1,60.7c-1.2,2.4,8.3,1.2,9.5-1.2c10.7-23.8,33.3-45.2,57.1-56c-2.4,0-4.8,0-6,0c4.8,22.6,3.6,45.2-2.4,67.9
	c-3.6,10.7-9.5,20.2-16.7,28.6c-2.4,3.6-20.2,21.4-22.6,8.3c-2.4-4.8-2.4-9.5-4.8-13.1C533.4,811.4,523.8,813.8,525,817.4L525,817.4
	z"/>
<path fill="#E56D26" d="M251.2,752.8c13.1-28.6,35.7-54.8,53.6-81c13.1-19,36.9-47.6,35.7-72.6c0-2.4-9.5-1.2-9.5,2.4
	c1.2,28.6-27.4,60.7-42.9,82.1c-15.5,22.6-34.5,45.2-46.4,70.2C240.5,757.5,250.1,756.3,251.2,752.8L251.2,752.8z"/>
<path fill="#E56D26" d="M49.4,743.8c-1.2,26.2-6,71.4,15.5,90.5c16.7,15.5,70.2,8.3,90.5,3.6c1.2,0,4.8-1.2,4.8-3.6
	c-7.1-21.4-19-38.1-33.3-54.8c-8.3-9.5-16.7-17.9-25-27.4c-7.1-8.3-27.4-23.8-14.3-32.1c33.3-20.2,72.6-34.5,108.3-47.6
	c6-2.4,0-4.8-3.6-3.6c-39.3,14.3-88.1,28.6-121.4,56c-1.2,1.2-1.2,1.2-1.2,2.4c14.3,20.2,31,38.1,47.6,56
	c9.5,11.9,19,23.8,26.2,36.9c11.9,22.6-28.6,16.7-39.3,15.5c-29.8-1.2-39.3-11.9-44.1-40.5c-2.4-17.9-2.4-35.7-1.2-53.6
	C58.9,739,49.4,741.4,49.4,743.8L49.4,743.8z"/>
<path fill="#E56D26" d="M173.8,638.8c-2.4-2.4-3.6-4.8-7.1-4.8c-2.4,0-7.1,0-7.1,2.4c-1.2,8.3,4.8,15.5,10.7,21.4
	c1.2,1.2,8.3,0,9.5-2.4c0-7.1-2.4-13.1-7.1-16.7c-2.4-1.2-7.1,0-8.3,2.4c-3.6,3.6-4.8,8.3,0,10.7c4.8,2.4,11.9,0,15.5-3.6
	c4.8-4.8,1.2-14.3-4.8-16.7c-7.1-3.6-16.7,0-21.4,6c-8.3,10.7,9.5,28.6,20.2,28.6c19,1.2,15.5-20.2,15.5-32.1c0-2.4-9.5-1.2-9.5,2.4
	c0,7.1,1.2,14.3-1.2,21.4c-1.2,2.4-2.4,2.4,0,2.4c-2.4,0-3.6-1.2-4.8-2.4c-3.6-2.4-7.1-6-9.5-9.5c-2.4-3.6-3.6-7.1-2.4-10.7
	c1.2-8.3,8.3-2.4,9.5,2.4c0,1.2,0,3.6,0,4.8c0,0,0,1.2-1.2,1.2c1.2-1.2,2.4,0,1.2-1.2c-3.6-1.2,0-6,1.2-7.1c-2.4,1.2-6,1.2-8.3,2.4
	c4.8,3.6,7.1,8.3,7.1,14.3c3.6-1.2,6-1.2,9.5-2.4c-4.8-4.8-11.9-11.9-9.5-19c-2.4,1.2-4.8,2.4-7.1,2.4c2.4,0,3.6,2.4,4.8,3.6
	C166.7,643.6,175,641.2,173.8,638.8L173.8,638.8z"/>
<path fill="#E56D26" d="M389.7,787.3c-16.7-27.4-26.2-59.5-38.1-88.1c-3.6-9.5-15.5-53.6-31-53.6c-3.6,0-10.7,4.8-3.6,4.8
	c9.5,0,28.6,60.7,32.1,69.1c9.5,23.8,17.9,48.8,31,71.4C381.4,792.1,390.9,788.5,389.7,787.3L389.7,787.3z"/>
<path fill="#E56D26" d="M391.7,657.7c7.1,6,10.7,19,14.3,27.4c7.1,19,14.3,36.9,22.6,54.8c7.1,15.5,19,63.1,39.3,69.1
	c2.4,1.2,10.7-3.6,7.1-3.6c-20.2-6-34.5-61.9-41.7-78.6c-8.3-20.2-15.5-57.1-33.3-71.4C397.7,653,389.4,656.5,391.7,657.7
	L391.7,657.7z"/>
<path fill="#E56D26" d="M435.7,659.1c1.2,2.4,1.2,4.8,3.6,6c2.4,1.2,7.1,0,8.3-2.4c1.2-3.6,3.6-8.3,0-10.7
	c-2.4-2.4-8.3-1.2-10.7-1.2c-3.6,1.2-6,3.6-7.1,7.1c0,4.8,4.8,7.1,8.3,9.5c2.4,1.2,8.3,0,8.3-3.6c0-6-1.2-11.9-4.8-16.7
	c-1.2-2.4-7.1,0-9.5,1.2c-4.8,8.3-1.2,20.2,9.5,22.6c2.4,0,7.1-1.2,7.1-2.4c1.2-7.1,0-13.1-3.6-19c-1.2-1.2-2.4-1.2-3.6-1.2
	c-8.3,1.2-17.9,4.8-19,15.5c0,6,4.8,13.1,11.9,13.1c9.5,1.2,16.7-8.3,14.3-17.9c-2.4-11.9-17.9-14.3-28.6-10.7c-6,2.4,0,4.8,3.6,3.6
	c7.1-2.4,14.3,4.8,15.5,11.9c1.2,3.6,0,7.1-2.4,9.5c-1.2,2.4,3.6,0,2.4,0c-1.2,0-1.2-1.2-2.4-1.2c-7.1-6-6-16.7,3.6-17.9
	c-1.2,0-2.4-1.2-3.6-1.2c2.4,6,4.8,11.9,3.6,17.9c2.4-1.2,4.8-2.4,7.1-2.4c-8.3-2.4-9.5-13.1-4.8-19c-3.6,0-6,1.2-9.5,1.2
	c3.6,4.8,4.8,10.7,4.8,16.7c2.4-1.2,6-2.4,8.3-3.6c-2.4-1.2-9.5-6-6-9.5c-2.4,1.2-2.4,0-1.2,2.4c1.2,2.4,0,6-1.2,8.3
	c2.4-1.2,6-2.4,8.3-2.4c-2.4-1.2-1.2-2.4-2.4-3.6C442.9,653.1,434.6,656.7,435.7,659.1L435.7,659.1z"/>
</svg>
