<?xml version="1.0" encoding="utf-8"?>
<!-- Generator: Adobe Illustrator 18.0.0, SVG Export Plug-In . SVG Version: 6.00 Build 0)  -->
<!DOCTYPE svg PUBLIC "-//W3C//DTD SVG 1.1//EN" "http://www.w3.org/Graphics/SVG/1.1/DTD/svg11.dtd">
<svg version="1.1" id="Calque_2" xmlns="http://www.w3.org/2000/svg" xmlns:xlink="http://www.w3.org/1999/xlink" x="0px" y="0px"
	 viewBox="0 0 50 70" enable-background="new 0 0 50 70" xml:space="preserve">
<g>
	<g>
		<path fill="#E56D26" d="M25.4,47.3c1.1-1.4,1.9-3.3,2.7-4.9c0.3-0.6,2.8-5.6,3-5.5c0.2,0.1,0.9-0.3,0.6-0.3
			c-1.3-0.4-2.3,2-2.8,2.8c-1.4,2.6-2.4,5.6-4.2,7.9C24.5,47.6,25.3,47.5,25.4,47.3L25.4,47.3z"/>
		<path fill="#E56D26" d="M42.1,23.9c-1.4-4.6-9.6-3.6-12.9-2c-4.5,2.2-7.6,8.4-6.1,13.1c3.7,12,24.5,2.7,19-9.2
			c-0.1-0.2-0.9,0-0.8,0.2c2.4,5-0.4,11-5.3,13.1c-4.7,2.1-9.4,0.7-11.8-3.7c-1.8-3.4-0.1-7.5,1.9-10.3c1.6-2.2,3.9-3.6,6.5-4.1
			c2.5-0.5,7.7,0,8.6,3C41.4,24.4,42.2,24.2,42.1,23.9L42.1,23.9z"/>
		<path fill="#E56D26" d="M39.3,49.4c0.4-1.8,0-3.8-0.3-5.6c-0.3-1.5-0.6-3.5-1.5-4.8c-0.1-0.2-0.9,0.1-0.7,0.3
			c0.8,1.2,1,2.9,1.3,4.3c0.4,1.9,0.9,4.1,0.4,6C38.5,49.8,39.3,49.7,39.3,49.4L39.3,49.4z"/>
		<path fill="#E56D26" d="M38.9,51.5c-0.1,3.1-1.1,6.2-1.6,9.2c-0.5,2.5-1.7,6.1-1.1,8.7c0.1,0.2,0.8,0,0.8-0.2c0-0.1,0-0.3,0-0.4
			c0-0.2-0.8-0.1-0.8,0.2c0,0.1,0,0.3,0,0.4c0.3-0.1,0.5-0.1,0.8-0.2c-0.6-2.7,0.7-6.7,1.2-9.4c0.5-2.8,1.4-5.7,1.5-8.6
			C39.7,51.1,38.9,51.2,38.9,51.5L38.9,51.5z"/>
		<path fill="#E56D26" d="M36.2,69.1c1.3,1.2,3.6,0.8,5.2,0.8c1.3,0,2.7,0.1,4-0.4c1.4-0.6-0.2-1.7-0.9-2.1c-2.3-1.2-5-1.3-7.5-1.3
			c-0.2,0-0.9,0.4-0.3,0.4c1.8,0,3.6,0,5.4,0.5c0.8,0.2,4.8,2,2.4,2.4c-1,0.2-1.9,0.1-2.9,0.1c-1.4,0-3.3,0.4-4.5-0.7
			C36.8,68.7,36,69,36.2,69.1L36.2,69.1z"/>
		<path fill="#E56D26" d="M10.5,58c2.5-1.5,5-3,7.5-4.5c1.4-0.8,2.7-1.7,4-2.6c0.4-0.3,1.4-0.8,1.6-1.4c0.1-0.2-0.7-0.1-0.8,0.1
			c-0.2,0.6-1.5,1.3-2.1,1.7c-1.5,1-3,2-4.6,2.9c-2,1.2-4.1,2.4-6.1,3.7C9.6,58.1,10.3,58.1,10.5,58L10.5,58z"/>
		<path fill="#E56D26" d="M10.3,59.6c-0.6-1.3-1.7-2.1-2.4-3.3c-0.1-0.2-0.7,0-0.8,0.2c-0.6,1.3-0.8,3-1.2,4.4
			c-0.5,1.8-1.4,3.4-1.9,5.2c-0.1,0.2,0.7,0.1,0.8-0.1c0.8-1.3,1.7-2.4,2.8-3.5C8.5,61.7,9.3,60.3,10.3,59.6
			c0.5-0.2-0.2-0.3-0.4-0.1c-1,0.6-1.6,1.5-2.3,2.4c-1.2,1.5-2.5,2.6-3.5,4.2c0.3,0,0.5,0,0.8-0.1c0.5-1.6,1.3-2.9,1.7-4.5
			c0.4-1.7,0.6-3.6,1.3-5.2c-0.3,0.1-0.5,0.1-0.8,0.2c0.7,1.2,1.8,2,2.4,3.3C9.6,60.1,10.4,59.8,10.3,59.6L10.3,59.6z"/>
		<path fill="#E56D26" d="M22.9,49.7c0.3,0,0.8,0,1-0.3c0.3-0.3,0-0.8-0.3-0.9c-0.1-0.1-0.7,0-0.8,0.2c-0.1,0.6,0.2,0.9,0.8,1
			c0.1,0,0.5-0.1,0.6-0.2c0.1-0.7-0.3-1.3-1.1-1.2c-0.7,0.1-1.1,0.6-0.6,1.2c0.1,0.1,0.4,0,0.5,0c0.4-0.2,0.7-0.4,0.8-0.9
			c0-0.2-0.4-0.1-0.5-0.1c-0.5,0.2-1,0.7-0.6,1.2s1.2,0.3,1.6,0l0.1-0.1c-0.1-0.4-0.2-0.8-0.5-1.1c-0.2-0.1-0.5,0-0.7,0.1
			c-1.3,1,0.5,2.7,1.7,1.9c0.6-0.4,0.7-1.5,0.2-2s-1.4-0.4-2-0.4c-0.2,0-0.9,0.4-0.3,0.4c0.4,0,0.9,0,1.4,0.1c0.6,0.2,0.6,1,0.4,1.5
			c0,0.1-0.1,0.2-0.1,0.3c-0.1,0.1,0.1,0.1-0.1,0S24,50.2,23.9,50c-0.3-0.4-0.4-0.9,0-1.2c-0.2,0-0.5,0.1-0.7,0.1
			c0.3,0.3,0.4,0.6,0.5,1l0.1-0.1c-0.2,0.1-0.6-0.7-0.1-0.9c-0.2,0-0.4,0-0.5-0.1c0,0.2-0.1,0.4-0.3,0.5c0.2,0,0.3,0,0.5,0
			c-0.1-0.1-0.2-0.3-0.2-0.5c0-0.1,0.1-0.1-0.1,0h0.1c0.4,0.1,0.4,0.6,0.4,0.9c0.2-0.1,0.4-0.2,0.6-0.2c-0.3,0-0.4-0.5-0.3-0.7
			c-0.3,0.1-0.5,0.1-0.8,0.2c0.1,0.1,0.2,0.1,0.2,0.2c0.1,0.2-0.1,0.3,0.3,0.3c-0.2,0-0.4,0-0.6,0.1C22.8,49.6,22.8,49.7,22.9,49.7
			L22.9,49.7z"/>
		<path fill="#E56D26" d="M38.4,51.2c0.6,0.3,1.6,0,1.5-0.7c-0.1-0.9-1.3-0.3-1.7,0.1v0.1c0.2,0.5,0.7,0.6,1.2,0.4
			c0.6-0.2,0.7-0.8,0.5-1.3c0-0.1-0.2-0.1-0.3-0.1c-0.5,0.1-0.9,0.3-1.1,0.8c-0.1,0.3-0.2,0.9,0.2,0.9c0.5,0,1-0.2,1.2-0.7
			c0.1-0.5-0.1-1.1-0.5-1.4c-0.2-0.1-0.7,0-0.8,0.2c-0.1,0.4-0.1,0.7,0.1,1c0.1,0.2,0.6,0,0.8-0.1c0.1-0.2,0.2-0.3,0.3-0.5
			c0.1-0.3-0.6,0-0.7,0c-0.6,0.4-0.8,1.2-0.1,1.6c0.2,0.1,0.6,0,0.7-0.2c0.4-0.5,0.4-1.1,0.2-1.7c-0.1-0.2-0.7,0-0.8,0.1
			c-0.2,0.2-0.2,0.3-0.3,0.6c-0.1,0.2,0.7,0.1,0.8-0.1c0.1-0.2,0.1-0.3,0.2-0.5c-0.3,0-0.5,0.1-0.8,0.1c0.1,0.5,0.2,1.1-0.2,1.6
			c0.2-0.1,0.5-0.1,0.7-0.2c-0.5-0.3-0.4-0.9,0-1.3c-0.2,0-0.5,0-0.7,0c0,0.2-0.1,0.3-0.2,0.4c0.3,0,0.5-0.1,0.8-0.1
			c-0.2-0.3-0.2-0.6-0.1-0.9c-0.3,0.1-0.5,0.1-0.8,0.2c0.4,0.2,0.7,1,0.4,1.4c0.2-0.3,0.3,0.2,0.2-0.1c0-0.1,0-0.2,0-0.3
			c0-0.2,0.2-0.5,0.3-0.6c-0.1,0-0.2,0-0.3-0.1c0.1,0.3,0.1,0.6-0.1,0.9c0.2,0,0.2,0,0.1-0.1S39,50.4,39,50.3c0.2-0.2-0.1-0.1,0,0
			s0.1,0.3,0.1,0.4c0,0.1,0,0.1-0.1,0.2c0.3,0,0.4-0.1,0.2-0.1c-0.1,0-0.1,0-0.2-0.1C38.9,50.8,38.2,51.1,38.4,51.2L38.4,51.2z"/>
		<path fill="#E56D26" d="M39.9,50.3c0.2-0.4,0.1-0.7-0.3-0.8c-0.2-0.1-0.7,0-0.7,0.2c-0.1,0.5,0,1,0.5,1.2c0.2,0.1,0.5,0,0.7-0.2
			c0.4-0.4,0.4-1.1,0-1.5c-0.5-0.5-1.3,0.2-1.5,0.7c-0.6,1.2,1.8,1.4,1.8,0.2c0-0.9-2.1-0.5-2.2,0.4c0,0.7,0.8,0.7,1.2,0.4
			c0.4-0.3,0.2-1.2-0.1-1.4c-0.2-0.2-0.6,0-0.7,0.2c-0.5,0.5-0.3,1.5,0.5,1.3c0.6-0.2,1-0.6,0.8-1.2c-0.2-0.5-1.1-0.5-1.4-0.2
			c-0.4,0.3-0.3,1,0.1,1.4c0.2,0.1,0.6,0,0.7-0.2s0.3-0.3,0.4-0.5s-0.7,0-0.8,0.1c-0.4,0.5-0.3,0.9,0.3,1.2c0.5,0.2,1.2,0,1.6-0.3
			c0.5-0.5,0.1-1.3-0.5-1.6c-0.7-0.3-1.7-0.2-2.3,0.1c-0.5,0.2,0.3,0.3,0.5,0.2c0.7-0.4,2,0.2,1.7,1.1c-0.1,0.3-0.2,0.3-0.5,0.1
			s-0.3-0.5-0.1-0.8c-0.3,0-0.5,0-0.8,0.1c-0.1,0.2-0.2,0.3-0.3,0.4c0.2-0.1,0.5-0.1,0.7-0.2c-0.1-0.1-0.2-0.3-0.3-0.5
			c0-0.1,0-0.2,0-0.3c0-0.3,0.1-0.1-0.1-0.1c0.2,0.1,0.2,0.3,0.3,0.5c0,0.1,0,0.2,0,0.3s-0.2,0.2-0.1,0.2s0.2,0,0.3,0
			c-0.3-0.3-0.3-0.7,0-1c-0.2,0.1-0.5,0.1-0.7,0.2c0.2,0.2,0.2,0.4,0.2,0.7c0,0.1,0,0.2,0,0.4c-0.1,0.2,0.1,0.2,0.4-0.1
			c-0.1-0.1-0.2-0.2-0.2-0.2c-0.2-0.4,0.2-0.6,0.5-0.3c0.1,0.1,0.1,0.2,0,0.3c0,0,0,0.1-0.1,0.1c0.1,0,0.1,0,0-0.1
			c-0.3-0.1-0.3-0.4-0.3-0.6c0-0.1,0.1-0.2,0.1-0.3c0.1-0.1,0.1-0.1-0.1-0.1c0.1,0.1,0.2,0.2,0.2,0.4c0.1,0.3,0,0.6-0.2,0.9
			c0.2-0.1,0.5-0.1,0.7-0.2c-0.4-0.2-0.5-0.6-0.4-1c-0.2,0.1-0.5,0.2-0.7,0.2c0.3,0.1,0.3,0.3,0.2,0.6
			C39.1,50.6,39.8,50.5,39.9,50.3L39.9,50.3z"/>
		<path fill="#E56D26" d="M22.9,48.9c0.4-0.2,0.7-0.7,0.2-1.1c-0.2-0.1-0.6,0-0.7,0.2c-0.8,1,1.2,1.6,1.7,0.7
			c0.2-0.4-0.3-0.9-0.6-1.1c-0.4-0.3-1-0.1-1.4,0.1L22,47.8c0.2,0.9,1.1,1.7,2,1c0.4-0.2,0.7-0.7,0.3-1.1c-0.3-0.3-0.9-0.1-1.1,0.2
			c-0.6,0.6,0,1.3,0.6,1.5c0.3,0.1,0.7,0,1-0.2s0.2-0.6,0-0.9c-0.1-0.2-0.9,0-0.8,0.2c0.1,0.1,0.1,0.3,0.1,0.4c0,0.3-0.2,0,0.3,0
			c-0.1,0-0.1,0-0.2,0c-0.3-0.1-0.5-0.4-0.6-0.6c0-0.2,0-0.3,0.1-0.4c-0.1,0-0.2,0.1-0.3,0.1c0.1,0,0.1,0.1,0.1,0.2
			c0.1,0.2-0.1,0.4-0.2,0.5c-0.2,0.1-0.7-0.9-0.7-1.1l-0.1,0.1c-0.1,0-0.2,0,0,0.1c0.1,0,0.2,0.1,0.3,0.2c0.1,0.1,0.2,0.3,0.3,0.5
			c0,0.1,0,0.1,0,0.2c0,0.1,0.1,0.1-0.1-0.1c-0.2-0.2-0.3-0.5-0.1-0.7c-0.2,0.1-0.5,0.1-0.7,0.2c0.2,0.2,0.3,0.5,0.1,0.6
			C22,49,22.7,49,22.9,48.9L22.9,48.9z"/>
	</g>
</g>
</svg>
